<?xml version="1.0" encoding="UTF-8" standalone="no"?>
<!DOCTYPE svg PUBLIC "-//W3C//DTD SVG 1.1//EN" "http://www.w3.org/Graphics/SVG/1.1/DTD/svg11.dtd">
<svg width="100%" height="100%" viewBox="0 0 100 68" version="1.1" xmlns="http://www.w3.org/2000/svg" xmlns:xlink="http://www.w3.org/1999/xlink" xml:space="preserve" xmlns:serif="http://www.serif.com/" style="fill-rule:evenodd;clip-rule:evenodd;stroke-linejoin:round;stroke-miterlimit:2;">
    <g transform="matrix(1,0,0,1,77.05,-88.45)">
        <path d="M-70.7,135.6L-77.1,135.6L-77.1,131L-75.4,131L-75.4,113.7C-75.9,114.7 -76.5,115.7 -77.1,116.7L-77.1,112.2C-71.5,101.4 -69,89.2 -68.8,88.4L-66.2,88.4C-66,88.9 -49.7,128.9 -27.3,129.5L-26.8,129.5C-13.5,129.5 -0.5,115.7 11.8,88.4L14.4,88.4L14.4,88.5C14.6,89.5 17.2,101.8 22.9,112.6L22.9,117.1C22.3,116.1 21.8,115.2 21.2,114.2L21.2,131.2L23,131.2L23,135.8L16.4,135.8L16.4,153L19.4,153L19.4,156.5L6.9,156.5L6.9,153L10,153L10,135.8L-64.3,135.8L-64.3,153L-61,153L-61,156.5L-73.6,156.5L-73.6,153L-70.8,153L-70.8,135.6L-70.7,135.6ZM14.5,97L14.5,104.7L15.3,104.7L15.3,117.3L16.3,117.3L16.3,131L20,131L20,111.6C17.6,106.4 15.8,101.2 14.5,97ZM6.2,131L10,131L10,117.4L11,117.4L11,104.8L11.8,104.8L11.8,93.4C9.9,97.3 8.1,100.9 6.2,104.2L6.2,131ZM0.4,113.5L0.4,131L5,131L5,106.4C3.5,109 1.9,111.3 0.4,113.5ZM-5.5,131L-0.9,131L-0.9,115.2C-2.4,117.2 -4,119.1 -5.5,120.7L-5.5,131ZM-11.3,131L-6.7,131L-6.7,122C-8.2,123.5 -9.8,124.9 -11.3,126.1L-11.3,131ZM-17.4,129.8L-17.3,131L-12.5,131L-12.5,127C-14.2,128.2 -15.8,129.1 -17.4,129.8ZM-41.5,131L-36.1,131L-36,129.8C-38.8,128.6 -38.6,128.7 -41.5,126.7L-41.5,131ZM-47.3,131L-42.7,131L-42.7,125.8C-44.2,124.6 -45.8,123.3 -47.3,121.8L-47.3,131ZM-53.2,131L-48.6,131L-48.6,120.5C-50.1,118.9 -51.7,117.1 -53.2,115.2L-53.2,131ZM-59.1,131L-54.5,131L-54.5,113.5C-55.3,112.5 -56,111.4 -56.8,110.3C-57.6,109.1 -58.4,107.9 -59.1,106.7L-59.1,131ZM-66.2,104.7L-65.3,104.7L-65.3,117.3L-64.3,117.3L-64.3,131L-60.4,131L-60.4,104.6C-62.9,100.3 -64.9,96.4 -66.2,93.6L-66.2,104.7ZM-70.7,131L-70.7,117.4L-69.7,117.4L-69.7,104.8L-68.9,104.8L-68.9,97C-70.1,101.1 -71.8,106.2 -74.3,111.2L-74.3,131L-70.7,131ZM-27.4,154.5C-27.4,154.2 -27.6,154 -27.9,154L-41.4,154C-41.7,154 -41.9,154.2 -41.9,154.5C-41.9,154.8 -41.7,155 -41.4,155L-27.9,155C-27.7,155 -27.4,154.8 -27.4,154.5ZM0,154.5C0,154.2 -0.2,154 -0.5,154L-17.4,154C-17.7,154 -17.9,154.2 -17.9,154.5C-17.9,154.8 -17.7,155 -17.4,155L-0.5,155C-0.2,155 0,154.8 0,154.5ZM-48.9,155C-48.6,155 -48.4,154.8 -48.4,154.5C-48.4,154.2 -48.6,154 -48.9,154L-56.8,154C-57.1,154 -57.3,154.2 -57.3,154.5C-57.3,154.8 -57.1,155 -56.8,155L-48.9,155Z" style="fill-rule:nonzero;"/>
    </g>
</svg>
