<?xml version="1.0" encoding="UTF-8" standalone="no"?>
<!DOCTYPE svg PUBLIC "-//W3C//DTD SVG 1.1//EN" "http://www.w3.org/Graphics/SVG/1.1/DTD/svg11.dtd">
<svg width="100%" height="100%" viewBox="0 0 2560 1371" version="1.1" xmlns="http://www.w3.org/2000/svg" xmlns:xlink="http://www.w3.org/1999/xlink" xml:space="preserve" xmlns:serif="http://www.serif.com/" style="fill-rule:evenodd;clip-rule:evenodd;stroke-linejoin:round;stroke-miterlimit:2;">
    <g transform="matrix(1,0,0,1,-17.0945,-43.713)">
        <g transform="matrix(1,0,0,1,0.255261,-0.417312)">
            <path d="M2027.64,194.061C1824.47,35.514 1888.86,70.47 1868.81,51.929C1858.39,58.042 1865.43,71.01 1853.29,79.959C1830.46,96.783 1796.36,83.303 1771.55,84.181C1740.78,85.27 1734.32,64.627 1723.49,56.151C1722.24,55.176 1721.6,53.767 1721.29,52.21C1717.67,34.467 1710.98,40.612 1709.62,52.377C1707.13,74.068 1341.27,642.629 1282.39,682.925C1281.9,683.266 1281.38,683.964 1281.34,684.526C1280.85,692.265 1161.78,821.655 1161.38,822.655C1148.91,853.782 899.072,1064.77 853.841,1062.39C850.241,1064.8 839.849,1069.19 839.849,1069.19C838.786,1073.32 822.106,1078.05 820.538,1077.65C819.471,1081.6 811.581,1081.12 808.421,1083.01C688.943,1154.37 499.224,1000.71 405.527,813.587C378.624,759.859 411.727,817.269 358.9,804.436C363.003,800.014 359.048,794.574 356.524,795.838C346.225,800.997 353.975,804.401 347.913,804.739C322.881,806.139 321.32,793.654 319.872,791.225C319.031,789.815 315.626,789.891 315.41,791.345C314.925,794.612 312.475,796.687 311.23,799.441C308.66,805.128 313.276,807.166 308.251,819.194C304.301,828.65 309.137,825.679 310.612,826.58C310.612,829.053 305.599,967.788 304.545,968.804C297.945,975.165 305.884,1202.9 291.386,1204.67C282.788,1205.72 288.232,1213.57 284.445,1214.81C275.531,1217.73 279.038,1214.12 276.907,1213.66C276.484,1215.89 276.986,1217.5 272.502,1218.27C248.451,1222.44 241.912,1232.32 238.424,1223.76C225.357,1233.03 254.821,1223.07 178.412,1246.95C152.715,1254.99 162.829,1244.11 161.612,1241.12C159.217,1240.02 156.032,1240.19 155.166,1236.73C154.366,1233.53 148.105,1237.97 140.872,1234.44C140.342,1234.18 139.55,1234.24 138.941,1234.4C134.722,1235.47 131.517,1233.42 127.969,1231.53C124.447,1229.66 119.676,1230.26 117.166,1226.21C116.726,1225.5 115.826,1225.35 115.569,1225.79C111.973,1231.88 105.116,1217.46 99.831,1220.76C97.081,1222.47 94.529,1223.3 91.466,1221.86C89.187,1220.79 88.54,1224.89 85.494,1222.2C82.54,1219.58 78.889,1219.06 75.284,1218.29C61.884,1215.41 58.613,1211.4 51.882,1213.26C48.683,1214.14 45.513,1216.61 41.994,1214.06C41.869,1213.96 41.519,1214 41.399,1214.11C34.892,1220.19 36.917,1215.4 33.083,1216.55C30.682,1217.28 28.595,1221.82 20.769,1219.25C16.494,1217.85 17.106,1222.74 17.106,1227.55C17.089,1440.49 13.374,1417.42 26.002,1417.42C2703.54,1417.45 2567.16,1417.55 2577.1,1417.11L2577.1,541.428C2577.09,541.428 2275.38,387.496 2027.64,194.061ZM294.453,1299.36C287.391,1303 281.684,1299.26 275.876,1296.4C272.18,1294.58 279.978,1290 267.867,1288.18C264.162,1287.63 267.108,1291.36 264.744,1291.87C253.572,1294.24 254.465,1280.07 242.584,1277.19C243.112,1274.51 241.673,1275.53 275.843,1265.77C291.184,1261.39 295.044,1260 295.082,1263.45C295.146,1269.41 294.807,1296.85 294.453,1299.36ZM380.46,833.062C379.969,837.936 369.403,869.784 365.733,876.89C357.017,861.504 348.74,846.893 340.631,832.579C341.93,830.261 378.897,832.633 380.46,833.062ZM376.634,862.047C376.634,866.707 376.928,863.69 375.69,884.581C375.315,890.912 362.881,885.227 376.634,862.047ZM372.067,947.744C372.144,947.746 372.221,947.748 372.298,947.75C372.932,920.854 372.729,924.838 373.392,920.245C373.508,919.439 375.204,919.346 375.323,920.296C377.021,933.937 370.182,1016.29 372.067,947.744ZM344.636,1197.94C341.45,1198.61 342.35,1198.78 342.35,1160.36C342.559,1160.36 342.767,1160.36 342.976,1160.36C343.805,1122.27 343.719,1123.87 343.977,1122.27C344.257,1120.53 347.336,1120.27 347.62,1122.49C347.805,1123.94 347.792,1119.6 347.387,1192.8C347.375,1194.99 347.648,1197.3 344.636,1197.94ZM329.215,1079.22C329.215,1079.22 329.225,1068.38 329.225,1045.73C329.381,1045.73 329.653,1010.15 333.399,1010.24C335.888,1010.3 335.785,1011.83 335.684,1016.68C335.663,1017.69 334.451,1075.95 334.309,1079.06C334.163,1082.27 329.25,1082.13 329.215,1079.22ZM332.444,1160.48C332.387,1160.48 332.331,1160.48 332.274,1160.48C331.244,1201.8 332.158,1201.83 327.552,1202.37C325.315,1202.64 325.371,1201.06 325.541,1196.6C328.988,1106.2 327.451,1135.95 330.833,1121.77C330.986,1121.13 333.134,1120.92 333.248,1122.47C333.5,1125.87 333.459,1124.87 332.444,1160.48ZM334.408,1160.47C334.473,1160.47 334.539,1160.47 334.604,1160.47C337.364,1073.89 341.844,1148.15 338.376,1197.11C338.113,1200.82 333.507,1202.12 333.658,1197.24C334.6,1166.68 334.408,1181.49 334.408,1160.47ZM336.463,1081.2C336.151,1079.12 336.202,1080.08 337.009,1046.38C337.09,1046.38 337.243,1025.33 337.263,1014.81C337.28,1005.89 342.07,1009.27 342.29,1010.27C342.882,1012.96 341.249,1079.82 340.995,1081.22C340.648,1083.13 336.75,1083.11 336.463,1081.2ZM339.457,956.893C339.479,956.139 339.501,955.402 339.522,954.676L339.522,950.334L339.644,950.334C340.639,913.846 339.845,915.794 343.692,915.626C347.973,915.439 343.689,972.167 343.689,972.167L343.408,972.167C343.076,973.639 342.282,974.699 340.761,974.524C338.6,974.274 338.525,973.168 339.522,970.328L339.522,956.784C339.5,956.819 339.48,956.858 339.457,956.893ZM343.535,886.33C341.086,886.056 341.181,884.683 341.174,881.809C341.084,840.614 340.981,847.047 341.601,843.548C346.021,848.875 348.087,853.792 347.636,859.931C345.941,883.032 349.199,886.963 343.535,886.33ZM344.903,1081.12C344.766,1079.73 344.798,1081.57 344.798,1045.68C344.984,1045.68 345.971,1024.24 346.29,1013.51C346.502,1006.4 350.084,1009.15 350.219,1010.49C350.492,1013.2 349.086,1079.36 348.719,1081.37C348.43,1082.94 345.111,1083.25 344.903,1081.12ZM348.878,974.689C346.723,974.728 346.648,973.306 346.752,970.155C347.456,948.736 349.856,916.833 349.856,916.833L352.523,916.833L352.523,944C352.522,944 351.806,974.636 348.878,974.689ZM350.475,858.355C355.954,866.571 355.409,868.486 354.26,884.65C354.145,886.259 345.555,896.595 350.475,858.355ZM350.886,1157.86C351.67,1120.4 351.203,1121.22 352.999,1121.12C358.46,1120.82 350.323,1262.97 350.323,1157.86C350.51,1157.85 350.698,1157.86 350.886,1157.86ZM353.314,1083L353.314,1082.12L352.939,1082.12L352.939,1080.13C352.81,1084.33 352.782,1083.25 352.939,1072.83L352.939,1059.75L353.151,1059.75C353.199,1056.92 353.253,1053.79 353.314,1050.33L353.314,1008.88L355.814,1008.88L355.814,1083L353.314,1083ZM355.21,971.938C356.575,914.717 356.184,923.982 357.547,917.713C357.772,916.679 359.332,917.292 359.4,917.998C359.714,921.262 359.162,945.503 359.162,945.503C359.162,973.507 359.672,974.541 357.173,974.672C355.414,974.764 355.177,973.302 355.21,971.938ZM358.007,886.723C356.667,885.844 356.997,885.686 356.997,870.914C357.497,870.806 357.996,870.698 358.496,870.591C360.726,873.762 363.011,876.895 365.163,880.118C367.386,883.446 362.514,889.678 358.007,886.723ZM359.189,1055.12L359.189,1083.5L358.314,1083.5L358.314,1049.12C358.314,1049.12 359.643,1013.04 360.641,1009.86C361.288,1024.97 359.772,1040.03 359.189,1055.12ZM358.637,1157.5C359.516,1119.32 358.923,1121.31 360.991,1120.93C366.408,1119.93 358.222,1257.47 358.222,1157.5C358.36,1157.5 358.499,1157.5 358.637,1157.5ZM361.584,1081.2C361.445,1079.63 362.104,1045.74 362.104,1045.74C362.104,954.395 368.172,1058.18 364.346,1081.02C363.905,1083.65 361.694,1082.44 361.584,1081.2ZM365.064,975.125L365.064,918.125L367.189,918.125L367.189,975.125L365.064,975.125ZM369.457,1127.16C370.691,1128.66 370.219,1130.45 370.188,1132.1C367.678,1265.56 365.284,1130.11 369.457,1127.16ZM339.918,844.154C338.219,886.304 339.981,885.822 336.564,886.111C332.414,886.461 333.361,884.83 333.361,858.112L332.991,858.112C332.991,851.339 332.992,844.567 332.99,837.794C332.984,822.774 340.215,836.797 339.918,844.154ZM332.189,942.5L332.322,942.5C332.245,918.526 331.32,915.432 336.732,916.531C339.752,917.144 337.429,964.62 335.595,971.281C334.907,973.78 331.835,974.362 331.837,970.932C331.843,962.119 331.939,962.6 331.939,945.393L332.19,945.393L332.19,942.5L332.189,942.5ZM324.936,878.023C325.433,843.654 324.209,829.578 331.041,831.989C333.789,832.959 330.345,882.932 330.191,883.942C324.953,882.414 324.873,882.413 324.936,878.023ZM323.434,950.854C323.33,925.893 330.606,909.222 330.325,921.433C329.061,976.515 329.238,970.278 328.715,972.138C322.154,970.499 322.632,964.015 324.874,957.638C325.717,955.243 323.445,953.375 323.434,950.854ZM327.793,1021.4C326.543,1068.41 326.82,1062.42 326.241,1064.64C325.958,1065.73 324.387,1065.06 324.304,1064.54C323.832,1061.53 323.888,1062.06 324.143,1045.55C324.549,1019.25 325.952,1030.44 327.793,1021.4ZM324.99,1070.67C327.21,1071.48 327.097,1080.71 324.519,1079.8C322.192,1078.97 323.436,1076.87 323.051,1075.45C323.056,1071.82 323.718,1070.21 324.99,1070.67ZM323.237,1158.77C323.025,1196.54 323.546,1194.5 321.429,1194.69C319.535,1194.87 320.418,1159.51 323.237,1158.77ZM322.085,1304.51C321.407,1306.11 317.109,1307.11 317.653,1303.48C318.372,1298.69 322.55,1303.41 322.085,1304.51ZM319.217,1262C319.484,1248.44 324.27,1255.69 335.297,1250.06C336.446,1249.48 338.234,1250.83 337.972,1252.07C336.295,1260.03 339.092,1256.25 323.018,1272.75C316.9,1279.03 319.074,1269.29 319.217,1262ZM342.523,1264.89C347.417,1259.99 347.104,1263.37 360.613,1277.7C368.18,1285.73 357.876,1283.91 345.741,1283.91L345.741,1283.96C322.824,1283.96 320.719,1286.72 342.523,1264.89ZM328.935,1293.11C330.818,1292.84 332.693,1291.63 334.489,1292.72C336.463,1293.32 338.079,1292.3 339.797,1292.17C347.009,1291.61 354.129,1293.14 361.32,1293.18C368.047,1293.23 356.262,1302.49 352.465,1307.74C343.122,1320.65 322.668,1293.99 328.935,1293.11ZM365.953,1314.58C364.238,1314.55 362.521,1314.3 360.821,1314.05C356.595,1313.41 367.667,1303.37 369.368,1302.13C371.859,1300.32 371.312,1305.21 371.312,1308.13C371.364,1308.13 371.417,1308.13 371.469,1308.13C371.469,1320.02 368.404,1314.64 365.953,1314.58ZM369.113,1273.52C355.261,1257.89 354.848,1258.34 355.132,1254.43C355.807,1245.15 367.95,1241.32 368.27,1242.98C368.888,1246.2 372.855,1247.54 372.756,1251.14C372.678,1253.98 372.74,1256.83 372.74,1259.67C372.811,1259.68 372.882,1259.68 372.952,1259.69C372.248,1270.5 372.657,1277.52 369.113,1273.52ZM372.605,1174.36C371.092,1169.06 371.71,1150.39 373.537,1146.23C374.75,1152.62 374.16,1170.44 372.605,1174.36ZM374.734,1065.23C373.209,1056.07 374.066,1027.17 376.344,1020.9C376.344,1067.37 376.922,1064.27 374.734,1065.23ZM377.014,972.884C374.981,971.804 376.631,973.627 376.722,924.962C376.774,897.575 382.214,975.645 377.014,972.884ZM381.064,956.059L381.064,929.979C384.438,930.193 381.725,953.805 381.064,956.059ZM384.487,861.302L384.174,861.302C384.174,883.85 384.924,884.73 381.95,885.902C379.194,886.988 377.737,886.209 377.731,883.295C377.665,852.756 377.283,857.004 382.362,839.287C385.066,829.857 384.487,860.302 384.487,861.302ZM1641.59,189.906C1641.72,175.752 1671.55,132.882 1673.8,131.926C1675.02,173.547 1672.69,249.761 1674.49,257.909C1673.01,262.065 1674.49,332.369 1672.94,346.029C1671.54,358.425 1647.06,384.943 1643.79,392.771C1640.51,400.622 1641.58,190.907 1641.59,189.906ZM1664.56,943.573C1665.39,938.387 1680.46,942.181 1671.25,951.139C1670.54,951.828 1670.5,953.536 1669.13,953.118C1667.51,952.624 1667.82,951.211 1668.23,949.872C1669.47,945.802 1663.67,949.072 1664.56,943.573ZM1651.6,411.414C1651.58,402.949 1650.6,382.421 1673.56,363.049C1673.56,615.494 1674.7,936.573 1669.82,936.661C1648.42,937.047 1652.76,1187.65 1651.6,411.414ZM1646.57,398.835C1649.86,395.288 1648.48,389.589 1648.48,687.842L1648.41,687.842C1648.41,978.104 1652.38,981.49 1643.01,977.015C1639.99,975.567 1641.39,979.354 1641.04,430.181C1641.03,409.859 1639.8,406.118 1646.57,398.835ZM1613.6,224.792C1655.48,158.408 1631.49,171.092 1638.43,395.267C1638.71,404.303 1611.27,436.723 1608.38,440.038C1607.98,436.549 1606.24,434.315 1607.78,431.605C1607.78,431.606 1602.34,242.645 1613.6,224.792ZM1623.89,961.951C1623.89,961.951 1618.66,1094.27 1619.57,673.419C1620.14,411.663 1614.52,443.957 1632.79,418.14C1641.58,405.728 1637.7,418.067 1637.3,490.995C1634.53,992.295 1646.74,976.837 1630.03,978.557C1624.53,979.123 1626.46,965.449 1627.48,963.117C1629.22,959.165 1622.99,959.592 1623.89,961.951ZM1614.47,443.949C1619.54,449.312 1613.12,513.663 1616.49,527.584C1613.37,554.186 1619.9,979.926 1614.13,980.554C1606.83,981.349 1606.78,982.584 1606.8,974.464C1608.45,404.78 1604.1,457.627 1614.47,443.949ZM1573.87,345.926C1573.79,294.966 1572.45,289.249 1580.19,277.598C1610.63,231.794 1604.13,219.39 1604.13,328.68L1604.08,328.68C1604.08,407.997 1605.08,447.333 1600.45,452.294C1567.58,487.538 1574.19,532.993 1573.87,345.926ZM1590.2,967.196C1587.16,966.763 1587.84,982.464 1587.84,725.775L1588.16,725.775C1588.16,501.548 1583.14,469.541 1602.01,462.359C1605.42,465.516 1604.73,1069.99 1599.02,976.667C1598.59,969.474 1597.47,968.236 1590.2,967.196ZM1597.12,978.857C1596.99,982.553 1596.96,982.55 1593.17,983.169C1591.68,983.413 1590.21,984.055 1588.4,983.345C1587.39,979.423 1588,975.351 1587.98,971.545C1589.64,970.003 1597.49,968.656 1597.12,978.857ZM1582.72,486.634C1586.09,482.556 1584.46,978.364 1584.4,979.375C1584.12,984.272 1583.38,983.362 1579,983.891C1571.73,984.77 1573.47,1013.1 1573.47,647.453L1573.46,647.453C1573.46,477.22 1570.75,501.097 1582.72,486.634ZM1561.89,970.114C1561.89,956.805 1560.86,954.914 1565.96,954.45C1572.07,953.895 1571.09,954.453 1570.82,981.426C1570.79,984.664 1571.22,985.661 1564.94,986.371C1561.36,986.776 1562.12,985.564 1562.12,970.114L1561.89,970.114ZM1556.78,820.427C1556.78,495.535 1553.04,522.489 1567.17,507.609C1573.7,500.727 1568.68,812.599 1570.57,821.91C1569.93,824.062 1569.89,918.931 1569.95,919.932C1574.08,984.143 1559.65,919.378 1559.34,977.393C1559.32,981.554 1559.45,984.094 1558.45,984.081C1555.93,984.048 1556.8,989.444 1556.8,820.427L1556.78,820.427ZM1541.79,347.28C1541.35,333.874 1546.09,329.604 1562.81,304.745C1569.09,295.412 1569.04,295.004 1570.38,295.58C1571.38,296.012 1571.11,432.696 1569.83,440.44C1571.37,447.218 1571.01,490.834 1568.41,495.045C1558.8,510.625 1551.45,512.999 1551,518.519C1550.92,519.477 1543.32,529.156 1541.54,529.295C1541.43,528.931 1541.89,350.66 1541.79,347.28ZM1541.5,547.928C1540.14,540.328 1540.13,540.139 1551.87,526.162C1556,521.235 1554.15,523.664 1554.15,756.77C1554.04,756.77 1553.92,756.769 1553.81,756.769C1553.81,1010.44 1558.08,987.277 1546.47,988.289C1535.42,989.252 1543.02,556.521 1541.5,547.928ZM1515.76,374.939C1534.42,347.572 1534.28,345.502 1537.65,343.961C1540.83,351.108 1537.3,351.076 1537.7,491.344C1537.82,531.538 1540.24,533.176 1535.56,538.14C1504.54,571.093 1509.03,613.149 1510.54,445.975C1511.06,388.328 1507.95,386.407 1515.76,374.939ZM1536.65,546.772C1538.87,547.463 1537.98,987.349 1537.34,988.641C1523.62,992.427 1527.4,1004.03 1527.38,865.011C1527.34,633.117 1523.37,542.634 1536.65,546.772ZM1522.99,564.284C1523.99,564.853 1527.95,988.49 1520.52,990.552C1516.38,991.701 1509.93,993.359 1509.9,989.179C1507.29,557.573 1508.07,576.429 1522.99,564.284ZM1506.54,391.562C1506.54,604.43 1514.13,565.522 1484.07,602.877C1477.21,611.409 1479.6,604.503 1479.12,480.419C1478.94,433.491 1476.04,425.109 1506.54,391.562ZM1497.64,986.633C1498.36,975.822 1509.77,986.618 1505.05,992.069C1505.02,992.073 1505,992.078 1504.97,992.081C1499.05,996.469 1497.13,994.15 1497.64,986.633ZM1506,979.213C1503.19,978.794 1501.29,978.51 1499.15,978.189C1493.01,959.873 1506,102.799 1506,979.213ZM1493.8,601.155C1495.68,603.454 1496.16,994.338 1491.81,994.341C1482.54,994.347 1478.66,1001.27 1478.66,989.719C1478.6,605.584 1474.85,613.792 1493.8,601.155ZM1456.43,461.288C1468.14,446.507 1471.41,436.846 1476.08,435.074C1476.56,438.18 1477.18,613.224 1470.68,619.165C1445.4,642.271 1449,689.47 1449.5,501.665C1449.56,478.3 1448.55,471.226 1456.43,461.288ZM1475.11,624.907C1476.38,626.739 1476.06,959.899 1476.06,963.651C1467.03,963.184 1469.49,969.282 1469.47,912.49C1469.36,597.31 1466.72,626.357 1475.11,624.907ZM1473.8,966.932C1476.56,966.792 1475.95,967.889 1475.95,982.529L1476.05,982.529C1476.05,990.343 1477.36,999.444 1470.49,997.34C1469.22,996.951 1469.17,996.547 1469.14,985.426C1469.09,968.351 1468.34,967.208 1473.8,966.932ZM1463.55,637.81C1467.72,633.284 1467.37,635.345 1467.04,719.489C1465.89,1014.3 1468.18,996.726 1461.99,997.799C1445.52,1000.66 1448.7,1024.09 1448.7,826.359L1448.81,826.359C1448.81,628.51 1443.75,659.312 1463.55,637.81ZM1419.86,649.721C1419.86,587.159 1422.18,583.575 1419.93,575.429C1423.24,498.859 1413.62,520.921 1438.96,486.357C1442.45,481.606 1443.11,478.868 1445.31,479.504C1446.31,479.794 1448.85,647.469 1442.61,653.615C1419.84,676.052 1419.85,695.21 1419.85,649.721L1419.86,649.721ZM1441.79,849.842L1441.78,849.842C1441.78,518.525 1441.79,695.221 1441.79,849.842ZM1425.18,681.902C1444.97,661.08 1438.9,641.501 1438.9,828.174L1438.91,828.174C1438.91,828.938 1438.92,996.25 1438.92,996.25C1439.1,999.149 1439.2,1001.8 1429.54,1002.57C1424.1,1003 1424.07,1002.94 1423.39,997.39C1418.5,957.202 1419.4,1042.89 1419.4,927.508C1419.39,675.789 1416.95,690.562 1425.18,681.902ZM1392.28,571.953C1392.21,552.1 1388.55,551.756 1416.37,518.869C1417.9,525.177 1419.09,682.953 1413.99,687.158C1384.01,711.901 1392.83,754.867 1392.28,571.953ZM1390.87,967.039C1390.87,958.047 1390.79,949.053 1390.9,940.062C1391.75,866.539 1392.05,1014.65 1392.07,818.596C1392.08,719.844 1390.13,722.56 1396.45,715.997C1419.2,692.362 1411.94,661.58 1411.94,923.964C1411.94,1017.21 1414.6,1003.64 1403.71,1005.97C1387.35,1009.46 1390.9,1011.05 1390.9,967.038C1390.89,967.038 1390.88,967.039 1390.87,967.039ZM1364.51,662.774C1368.44,576.59 1354.5,602.325 1384.25,561C1388.11,555.646 1389.28,557.682 1389.12,564.269C1385.15,730.066 1399.06,705.463 1369.11,737.503C1367.44,739.29 1366.21,740.812 1364.95,739.873C1363.79,739.007 1364.14,670.86 1364.51,662.774ZM1364.11,800.508C1363.4,755.656 1363.31,751.512 1370.33,744.509C1392.15,722.759 1385.41,705.336 1385.41,852.902L1385.17,852.902C1385.17,873.714 1384.87,894.531 1385.26,915.336C1385.67,937.834 1385.64,973.156 1385.64,973.156C1385.94,978.23 1380.08,974.767 1380.18,981.709C1380.66,1014.06 1383.17,1009.48 1365.72,1011.34C1358.35,1012.12 1366.71,964.435 1364.11,800.508ZM1383.15,1008.98C1380.67,1009 1381.02,1008.96 1381.18,982.574C1381.19,981.574 1382.38,978.845 1384.46,979.262C1386.22,979.614 1385.82,980.53 1385.82,994.357L1385.71,994.357C1385.71,1008.53 1386.4,1008.94 1383.15,1008.98ZM1337.76,634.267C1337.64,619.924 1342.15,617.657 1358.01,596.566C1362.29,590.875 1361.76,598.463 1361.76,668.493L1361.46,668.493C1361.46,780.565 1361.11,735.683 1340.21,770.099C1333.44,781.244 1338.45,719.132 1337.76,634.267ZM1342.58,774.696C1358.19,757.653 1358.3,758.232 1359.41,758.917C1359.59,759.026 1360.36,1003.92 1360.36,1004.13C1360.35,1013.15 1359.51,1012.4 1344.96,1013.92C1343.92,1011.4 1344.33,1009.42 1344.19,1007.48C1343.58,998.622 1336.51,1005.75 1336.55,998.413C1337.86,768.634 1336.5,781.338 1342.58,774.696ZM1338.56,1004.88C1342.81,1004.34 1344.49,1008.7 1343.16,1012.68C1342.32,1015.18 1336.34,1014.15 1336.77,1008.98C1336.91,1007.4 1335.92,1005.21 1338.56,1004.88ZM1327.84,634.943C1329.3,633.025 1330.62,631.039 1333.59,630.151C1335.45,642.995 1334.24,606.57 1334.25,713.542C1334.26,775.148 1335.61,774.358 1329.96,780.092C1312.67,797.66 1313.75,797.281 1311.94,796.926C1309.67,786.382 1310.75,775.646 1310.61,764.969C1308.96,640.161 1310.35,657.941 1327.84,634.943ZM1319.8,798.568C1329.29,789.379 1329.26,786.497 1334.12,785.257C1334.14,786.259 1334.18,1009.94 1333.71,1013.1C1333.34,1015.57 1332.96,1015.25 1314.79,1017.89C1311.19,1018.41 1313.23,835.157 1313.24,834.139C1313.48,812.978 1311.37,806.731 1319.8,798.568ZM1285.47,699.597C1285.39,691.492 1287.87,684.714 1293.4,678.796C1314.56,656.166 1307.08,633.289 1307.91,797.254C1307.95,804.462 1305.97,805.114 1290.99,820.237C1282.36,828.944 1286.72,819.717 1285.47,699.597ZM1307.57,960.838C1308.74,1016.31 1299.53,961.762 1299.64,1012.2C1299.65,1016.95 1300.1,1019.14 1297.44,1019.59C1283.64,1021.91 1288.49,1035.13 1289.34,911.207C1289.96,820.217 1284.1,836.046 1305.18,813.683C1308.69,809.963 1307.68,818.258 1307.68,868.42C1307.43,868.42 1307.18,868.42 1306.93,868.421C1306.93,898.382 1307.55,959.837 1307.57,960.838ZM1306.98,991.039C1307.89,994.439 1307.4,997.934 1307.45,1001.38C1307.74,1021.45 1307.55,1017.07 1303.57,1018.03C1301.86,1018.45 1301.02,1017.47 1301.16,1015.96C1302.6,1000.64 1297.01,991.754 1306.98,991.039ZM1279.41,696.162C1280.9,694.825 1282.82,695.054 1282.83,697.646C1282.89,731.045 1282.17,822.734 1282.18,822.828C1282.75,826.982 1281.57,830.375 1278.33,833.267C1264.59,845.525 1260.4,853.76 1260.32,843.422C1259.35,718.855 1255.76,717.387 1279.41,696.162ZM1281.56,1018.67C1281.59,1021.33 1280.71,1020.91 1272.37,1022.9C1271.69,1017.89 1271.96,1013.96 1267.34,1012.44C1263.78,1011.27 1265.12,1017.9 1265.52,903.463C1265.67,859.616 1263.74,856.061 1269.12,849.8C1289.2,826.421 1279.88,828.869 1281.56,1018.67ZM1258.83,965.05L1259.19,965.05C1259.19,923.978 1260.19,860.303 1260.43,859.303C1266.96,832.285 1257.72,1015.68 1265.78,1015.52C1271.19,1015.42 1272.81,1023.25 1267.55,1024C1256.03,1025.64 1258.83,1036.29 1258.83,965.05ZM1235.65,810.524C1237.13,738.387 1230.35,754.683 1255.02,725.408C1259.16,720.488 1257.66,734.335 1257.66,789.117C1257.56,789.117 1257.46,789.118 1257.36,789.118C1257.36,866.107 1261.23,849.892 1239.88,869.52C1235.05,873.963 1234.36,873.588 1235.65,810.524ZM1256.56,944.123C1256.56,1034.49 1259.18,1025.94 1249.3,1026.69C1247.01,1026.86 1244.25,1028.34 1242.4,1026.72C1241.4,1025.85 1241.67,894.794 1243.46,877.591C1243.86,873.707 1252.34,864.053 1255.74,864.343C1256.54,865.597 1256.31,859.068 1256.31,944.124C1256.39,944.123 1256.48,944.123 1256.56,944.123ZM1239.92,1009.91C1240.18,1026.08 1240.31,1028.41 1237.06,1028.66C1234.98,1028.81 1234.04,1028.2 1234.14,1026.27C1234.61,1017.76 1233.24,1009.19 1234.94,1000.72C1234.16,995.233 1235.17,723.262 1239.92,1009.91ZM1211.81,888.587C1216.02,761.131 1201.89,786.949 1229.31,755.359C1234.81,749.016 1233.2,758.257 1233.2,814.018L1232.71,814.018C1232.71,876.101 1233.92,876.508 1227.57,881.229C1220.78,886.275 1211.5,897.789 1211.81,888.587ZM1226.14,1002.28C1224.79,1007.96 1216.5,1103.5 1219.76,905.424C1220.01,890.172 1233.36,883.14 1232.53,888.833C1231.59,895.228 1232.95,986.065 1232.22,997.75C1230.2,999.547 1226.66,998.883 1226.02,1002.24C1226.06,1002.25 1226.1,1002.26 1226.14,1002.28ZM1226.23,1002.31C1228.1,1002.86 1229.93,1001.31 1231.99,1002.29C1232.82,1003.97 1232.55,1003.42 1232.46,1025.6C1232.44,1028.95 1231.61,1029.83 1228.34,1029.89C1225.7,1029.93 1226.15,1030.6 1226.23,1002.31ZM1217,964.722L1216.78,964.722C1216.78,1034.6 1218.3,1031.95 1212.73,1031.27C1204.74,1030.29 1217,784.964 1217,964.722ZM1189.08,827.29C1187.69,803.967 1189.49,799.93 1193.36,795.646C1209.01,778.31 1206.79,780.734 1209.15,780.21C1209.15,917.585 1212.77,895.258 1192.1,912.397C1182.92,920.014 1191.02,859.743 1189.08,827.29ZM1197.34,935.474C1197.39,919.996 1195.86,914.31 1206.59,907.513C1208.71,906.171 1208.78,908.905 1208.75,923.021C1208.45,1063.15 1209.24,1031.17 1202.38,1025.92C1196.25,1014.68 1196.97,1050.96 1197.34,935.474ZM1202.22,1026.02C1202.23,1033.86 1197.29,1032.07 1197.02,1027.58C1196.88,1025.39 1198.76,1026.01 1202.22,1026.02ZM1187.75,926.934C1187.81,921.34 1189.88,920.888 1193.9,917.896C1197.34,921.046 1194.28,1017.91 1194.81,1027.65C1194.98,1030.66 1191.75,1031.68 1191.57,1034.38C1191.47,1035.76 1187.44,1034.35 1187.14,1031.31C1187.14,1031.31 1187.75,926.937 1187.75,926.934ZM1174.92,992.325C1174.94,992.375 1174.97,992.43 1175,992.474C1176.7,984.978 1175.28,947.06 1176.28,937.41C1176.93,931.097 1178.12,929.699 1185.25,926.16C1188.38,1049.18 1185.88,1038.01 1175.45,1036.26C1175.45,1032.23 1175.77,997.354 1174.92,992.325ZM1184.3,806.18C1186.94,809.297 1184.39,856.689 1185.52,911.32C1185.7,920.56 1182.5,920.794 1165.59,934.477C1163.37,811.294 1163.26,828.189 1184.3,806.18ZM1167.1,939.706C1169.05,938.401 1170.65,936.559 1172.93,935.653C1175.65,939.795 1171.92,986.14 1174.89,992.277C1169.56,998.311 1180.55,1038.39 1166.15,1038.39C1164.29,1038.4 1162.14,943.02 1167.1,939.706ZM1143.34,859.531C1143.31,854.75 1143,848.817 1147.6,844.278C1170.58,821.65 1160.88,812.256 1162.77,932.414C1162.88,939.277 1161.67,940.191 1144.27,953.441C1142,951.972 1143.99,960.859 1143.34,859.531ZM1158.78,1038.94C1156.07,1039.36 1157.46,1016.4 1157.99,1014.39C1158.37,1012.93 1161.43,1012.2 1161.6,1014.7C1161.79,1017.54 1161.74,1021.94 1161.74,1025.78L1161.72,1025.78C1161.72,1037.68 1162.41,1038.39 1158.78,1038.94ZM1155.49,1012.12C1154.19,1010.97 1154.74,1009.36 1154.75,1007.97C1155.09,950.373 1153.22,948.111 1162.62,944.941C1162.62,998.155 1164.1,1013.18 1155.49,1012.12ZM1141.96,1035.2C1142.23,954.249 1142.11,959.209 1144.8,957.759C1154.57,952.487 1152.55,943.239 1152.55,997.06L1152.22,997.06C1152.22,1044.41 1153.23,1040.2 1148.87,1040.86C1142,1041.9 1141.94,1041.9 1141.96,1035.2ZM1121.16,905.21C1122.18,874.587 1120.57,871.613 1125.8,866.233C1147.8,843.571 1138.68,841.078 1140.32,950.943C1140.38,954.637 1139.42,957.468 1136.27,959.059C1121.36,966.589 1118.18,994.655 1121.16,905.21ZM1134.12,1028.95C1134.01,984.463 1132.58,960.37 1138.95,964.098C1141.21,965.423 1139.1,1032.52 1138.85,1033.52C1134.24,1032.38 1134.12,1032.38 1134.12,1028.95ZM1137.52,1040.93C1136.02,1044.2 1131.8,1038.99 1135.79,1036.43C1136.79,1037.02 1138.87,1037.97 1137.52,1040.93ZM1127.77,1043.72C1117.25,1045.8 1120.9,1050.68 1120.76,978.814C1120.75,974.694 1127.03,971.114 1130.42,969.409C1132.08,971.498 1132.36,973.614 1132.18,975.835C1130.01,1004.3 1134.12,1042.47 1127.77,1043.72ZM1099.43,978.652C1100.42,879.711 1097.15,893.64 1115.94,876.208C1121.54,871.018 1118.18,899.112 1118.19,904.151C1118.31,975.162 1119.97,973.158 1113.72,976.313C1107.84,979.288 1102.88,985.918 1099.91,984.801C1099.01,982.949 1099.41,980.753 1099.43,978.652ZM1117.4,980.24C1118.91,980.968 1117.92,984.696 1117.84,1039.49C1117.84,1043.38 1117.9,1044.8 1115.85,1044.94C1113.82,1045.08 1113.84,1043.31 1113.9,1038.24C1114.35,999.94 1112.38,977.809 1117.4,980.24ZM1099.46,1017.18C1099.07,988.322 1097.72,991.952 1107.59,985.866C1112.96,982.55 1111.68,986.826 1111.68,1015.7C1111.54,1015.7 1111.4,1015.7 1111.26,1015.7C1111.26,1048.62 1112.31,1045.67 1107.49,1046.8C1095.05,1049.73 1099.86,1047.07 1099.46,1017.18ZM1093.59,897.808C1097.85,893.747 1097.15,898.078 1097.15,941.651L1096.81,941.651C1096.81,995.703 1100.87,986.187 1081.08,999.393C1077.91,1001.51 1078.33,995.74 1078.35,991.922C1078.89,900.453 1074.78,915.729 1093.59,897.808ZM1082.84,1003.15C1094.27,998.053 1091.59,986.939 1090.18,1039.63C1089.99,1046.72 1090.97,1048.92 1087.09,1049.77C1077.86,1051.81 1078.37,1048.63 1078.37,1025.4L1078.38,1025.4C1078.38,1009.05 1077.17,1005.69 1082.84,1003.15ZM1059.22,932.356C1059.44,926.694 1061.22,926.365 1075.47,914.041C1076.72,917.082 1077.83,1002.08 1073.65,1004.55C1054.23,1016.03 1055.34,1032.45 1059.22,932.356ZM1071.01,1043.65C1070.87,1043.96 1071.24,1044.46 1071.31,1044.88C1072.72,1053.58 1072.16,1051.75 1065.09,1053.44C1055.59,1055.71 1057.58,1049.56 1057.58,1035.35L1057.72,1035.35C1057.72,1017.73 1055.54,1020.3 1067.1,1013.15C1071.57,1010.38 1073.22,1010.05 1072.16,1026.18C1071.78,1032 1073.45,1037.96 1071.01,1043.65ZM1053.5,932.987C1056.21,930.668 1056.06,935.853 1056.05,937.835C1055.66,1020.83 1056.85,1014.58 1052.78,1017.87C1050.08,1020.05 1042.31,1025.33 1037.71,1026.47C1036.6,933.907 1036.51,947.486 1053.5,932.987ZM1053.31,1051.58C1053.33,1053.67 1052.24,1054.93 1050.33,1055.3C1039.55,1057.37 1037.47,1057.65 1037.49,1054.59C1037.62,1036.28 1036.67,1031.19 1043.94,1027.63C1055.5,1021.97 1053.02,1017.27 1053.31,1051.58ZM1033.28,950.249C1039.83,945.253 1033.7,977.772 1035.64,1025.04C1035.85,1030.15 1024.37,1035.71 1017.74,1038.76C1018.33,954.367 1013.95,964.999 1033.28,950.249ZM1032.87,1034.41C1039.09,1032.32 1030.95,1081.15 1030.95,1046.55L1030.99,1046.55C1030.99,1036.3 1030.53,1035.2 1032.87,1034.41ZM1019.33,1052.27C1013.99,1043.36 1029.28,1034.22 1029.36,1040.61C1029.58,1057.37 1030.19,1058.5 1025.97,1058.74C1020.78,1059.03 1026.13,1055.31 1019.33,1052.27ZM1020.82,1057.61C1020.97,1058.93 1019.31,1059.15 1018.93,1058.09C1018.51,1056.87 1020.6,1055.6 1020.82,1057.61ZM1005.24,972.854C1011.48,968.809 1013.92,963.916 1015.71,969.143C1016.51,971.48 1016.73,973.968 1016.34,976.243C1013.33,993.814 1019.79,1038.45 1011.28,1042.29C1003.13,1045.96 1002.4,1047.82 999.998,1046.82C999.225,1045.18 999.512,1043.4 999.505,1041.67C999.258,979.721 997.617,977.789 1005.24,972.854ZM1015,1057.38C1015.09,1061.45 1012.48,1060.94 1001.37,1062.62C997.616,1052.14 1005.45,1049.6 1012.28,1046C1015.69,1044.2 1014.83,1049.06 1015,1057.38ZM979.847,1037.36C980.277,998.033 978.143,992.091 986.496,987.095C1000.64,978.635 996.477,968.083 996.528,1046.22C996.53,1049.67 995.456,1051.51 992.246,1052.44C988.293,1053.58 985.112,1056.71 979.944,1057.09C980.608,1052.06 978.234,1047.28 981.022,1042.77C980.262,1041.05 979.826,1039.31 979.847,1037.36ZM983.372,1065.78C982.902,1063.49 982.772,1061.26 984.812,1060.01C988.107,1057.99 991.558,1056.14 995.235,1055.12C995.576,1055.55 995.828,1055.71 995.829,1055.88C995.868,1062.96 996.464,1064.66 983.372,1065.78ZM976.647,994.755C979.824,997.384 977.8,1033.85 977.6,1037.02C977.117,1044.73 973.219,1038 973.257,1047.72C973.301,1058.75 973.89,1064.96 968.036,1062.59C963.306,1060.67 961.53,1065.44 961.515,1054.64C961.44,998.043 958.839,1007.4 976.647,994.755ZM977.319,1057.77C976.878,1061.26 971.622,1057.32 974.899,1045.56C975.178,1044.56 979.249,1042.49 977.319,1057.77ZM957.971,1009.16C959.314,1010.73 958.903,1012.32 958.906,1013.78C959.042,1075.95 962.39,1068.38 946.555,1071.18C944.494,1071.55 943.237,1070.51 943.271,1068.19C943.874,1026.8 940.248,1012.99 957.971,1009.16ZM926.125,1048.17C926.227,1033.86 925.199,1029.23 930.242,1026.64C936.617,1023.36 941.164,1017.47 941.321,1024.45C941.352,1025.84 941.598,1050.19 940.618,1056.58C939.569,1063.42 943.219,1072.53 936.928,1073.31C924.555,1074.84 923.07,1079.37 927.671,1051.62C927.836,1050.63 926.115,1049.62 926.125,1048.17ZM908.503,1047.76C908.52,1042.77 909.62,1038.86 913.778,1036.64C919.14,1033.79 923.151,1029.96 923.329,1035.18C923.801,1049.09 923.533,1050.16 921.04,1051.21C918.028,1052.47 917.509,1066.17 918.505,1070.37C916.016,1070.52 914.032,1070.2 912.209,1071.13C912.662,1072.96 917.332,1072.81 916.545,1074.99C916.275,1075.74 915.705,1076.65 915.032,1076.94C906.504,1080.57 908.434,1068.49 908.503,1047.76ZM920.34,1064.09C920.949,1054.06 920.669,1054.9 921.83,1054.44C922.532,1054.15 923.042,1055.05 923.043,1055.59C923.105,1074.49 923.414,1074.24 921.912,1074.35C920.375,1074.46 920.681,1073.64 920.681,1064.1C920.568,1064.09 920.454,1064.09 920.34,1064.09ZM891.623,1054.42C891.79,1047.56 896.435,1046.8 900.588,1044.55C907.119,1041.01 905.742,1043.66 905.742,1060.79L905.732,1060.79C905.732,1081.6 908.289,1078.3 893.943,1080.24C890.967,1080.64 891.012,1079.5 891.623,1054.42ZM874.92,1064.57C874.923,1062.16 877.931,1062.26 876.296,1060.2C874.168,1057.52 878.22,1056.93 883.616,1053.78C889.572,1050.31 888.663,1052.88 888.663,1066.86L888.512,1066.86C888.512,1082.05 890.798,1081.44 877.886,1082.87C874.112,1083.29 874.899,1081.54 874.92,1064.57ZM862.6,1064.47C864.175,1063.85 865.496,1062.43 867.423,1062.88C868.467,1070.71 867.991,1073.54 864.558,1079.49C862.816,1082.51 875.021,1083.48 858.707,1086.38C858.156,1068.44 858.546,1066.07 862.6,1064.47ZM842.641,1081.74C843.082,1076.04 840.286,1071.76 855.686,1068.85C855.686,1088.21 857.446,1086.9 848.93,1088.19C841.144,1089.36 842.079,1089 842.641,1081.74ZM827.701,1080.86C828.296,1079.12 829.046,1079.27 838.111,1076.07C840.885,1079.88 839.949,1084.06 839.815,1088.1C839.75,1090.05 837.625,1090.21 829.239,1091.7C825.151,1092.43 825.914,1086.1 827.701,1080.86ZM820.011,1090.82C819.658,1094.27 812.999,1094.47 811.85,1094.12C807.289,1088.55 821.572,1075.57 820.011,1090.82ZM807.516,1088.92C808.592,1090.09 808.986,1094.87 805.909,1095.43C784.915,1099.31 803.804,1084.9 807.516,1088.92ZM792.838,1095.84C792.995,1098.48 791.358,1098.21 785.786,1099.07C777.839,1095.64 792.513,1090.37 792.838,1095.84ZM730.105,1106.13C732.638,1106.39 730.834,1109.94 728.826,1109.67C727.152,1109.44 726.969,1105.8 730.105,1106.13ZM716.572,1104.04C716.219,1103.8 715.271,1103.34 715.321,1103.18C715.977,1101.06 722.539,1103.28 716.572,1104.04ZM718.879,1107.79C720.544,1108.24 720.249,1110.86 718.824,1111.29C712.179,1113.3 713.26,1106.28 718.879,1107.79ZM703.834,1099.58C709.377,1097.76 716.844,1105.26 704.052,1104.63C701.151,1104.48 701.331,1100.4 703.834,1099.58ZM704.043,1108.62C708.194,1108.84 707.712,1114.65 703.356,1114.21C699.969,1113.87 699.814,1108.39 704.043,1108.62ZM699.432,1101.74C699.614,1106.28 691.649,1106.56 691.673,1101.15C691.7,1095.41 699.2,1095.93 699.432,1101.74ZM686.845,1116.1C686.087,1118.75 682.655,1118.97 682.3,1115.6C681.694,1109.84 687.213,1104.36 687.213,1113.64C687.223,1113.57 687.193,1114.88 686.845,1116.1ZM678.688,1092.4C679.688,1092 686.578,1091.81 686.758,1099.34C686.892,1104.93 686.326,1105.35 680.853,1104.26C676.868,1103.47 677.866,1096.38 678.688,1092.4ZM677.837,1109.1C680.275,1107.82 682.634,1118.37 678.369,1119.18C676.727,1119.49 676.861,1117.43 676.478,1113.9C677.151,1112.21 675.8,1110.17 677.837,1109.1ZM665.495,1095.16C665.495,1089.43 665.151,1088.1 667.615,1088.02C675.745,1087.77 674.381,1095.14 674.219,1101.44C674.157,1103.85 672.063,1103.98 668.365,1103.26C664.737,1102.55 665.295,1100.98 665.593,1095.16C665.561,1095.16 665.528,1095.16 665.495,1095.16ZM674.237,1118.26C674.07,1119.26 669.667,1124.59 670.613,1110.38C670.737,1108.52 676.232,1106.28 674.237,1118.26ZM664.973,1112.6C665.498,1102.15 669.849,1113.88 666.02,1121.27C664.63,1117.66 664.848,1115.1 664.973,1112.6ZM659.506,1083.96C663.345,1085.03 662.663,1088.11 662.663,1094.17L662.606,1094.17C662.606,1100.3 664.056,1104.12 655.607,1101.73C653.97,1101.27 653.859,1100.91 653.634,1084.17C653.589,1080.81 657.941,1083.52 659.506,1083.96ZM657.42,1122.96C653.655,1103.79 662.379,1105.93 662.679,1109.54C663.651,1121.24 664.856,1121.92 657.42,1122.96ZM652.043,1121.01C651.819,1125.6 645.055,1126.97 644.775,1124.35C643.553,1112.9 643.537,1105.74 648.588,1106.15C652.176,1106.44 652.703,1107.47 652.043,1121.01ZM643.083,1077.67C644.934,1077.17 651.136,1078.59 650.789,1084.16C649.763,1100.57 652.483,1101.98 647.542,1102.35C641.926,1102.76 642.372,1099.91 642.363,1097.07C642.301,1078.3 642.049,1078.91 643.083,1077.67ZM630.861,1071.02C642.41,1072.23 639.884,1081.62 639.726,1097.81C639.696,1100.89 635.531,1100.23 632.604,1099.26C630.016,1098.41 630.636,1097.72 630.861,1071.02ZM631.199,1115.74C631.663,1105.8 630.941,1103.11 635.02,1103.67C640.669,1104.45 640.148,1106.02 639.793,1123.83C639.739,1126.55 640.183,1127.07 633.88,1128.07C631.098,1128.52 631.687,1126.18 631.687,1115.74C631.525,1115.74 631.362,1115.74 631.199,1115.74ZM620.88,1130.18C619.661,1125.5 620.464,1120.89 620.243,1116.35C620.082,1113.03 624.976,1113.65 621.765,1110.65C619.107,1108.17 620.019,1105.1 620.61,1102.13C620.943,1100.46 623.127,1101.42 625.936,1102.14C628.262,1102.73 628.287,1102.14 628.4,1124.66C628.42,1128.6 628.436,1130.18 620.88,1130.18ZM618.793,1080.29C618.956,1080.29 619.119,1080.29 619.281,1080.29C619.281,1068.78 618.321,1063.73 622.898,1065.74C629.237,1068.53 627.23,1070.3 627.596,1094.98C627.622,1096.73 626.825,1097.34 625.322,1097.41C617.418,1097.83 618.793,1092.9 618.793,1080.29ZM608.361,1115.53C608.361,1100.69 607.271,1097.17 612.315,1098.36C614.123,1098.79 618.274,1099.51 616.541,1108.29C613.049,1125.99 616.934,1132.01 611.942,1132.75C607.995,1133.32 608.83,1132.2 608.83,1115.53C608.673,1115.53 608.517,1115.53 608.361,1115.53ZM609.002,1058.46C615.536,1060.69 616.567,1061.95 616.546,1067.94C616.456,1093.99 617.553,1095.97 612.171,1094.29C608.467,1093.13 607.869,1092.35 607.764,1088.24C607.222,1066.87 606.828,1063.89 609.002,1058.46ZM598.487,1051.23C603.332,1052.67 605.875,1055.4 605.701,1060.74C604.738,1090.26 607.143,1092.3 602.69,1091.3C599.246,1090.52 596.932,1090.17 596.924,1087.15C596.833,1053.77 596.363,1055.2 598.487,1051.23ZM605.201,1098.9C605.874,1139.15 604.811,1133.24 596.765,1135.28C591.18,1077.7 605.174,1097.27 605.201,1098.9ZM589.311,1044.38C596.163,1047.58 594.64,1046.46 594.545,1079.78C594.528,1085.91 595.361,1087.47 592.611,1087.74C584.371,1088.53 586.105,1080.19 586.105,1064.53L586.196,1064.53C586.195,1046.1 585.213,1042.47 589.311,1044.38ZM586.603,1090.78C595.169,1091.6 594.241,1090.14 593.534,1129.96C593.4,1137.51 587.074,1137.99 585.064,1137.06C585.064,1122.8 584.625,1121.97 586.645,1120.83C587.334,1120.44 587.314,1119.52 586.798,1119.25C582.584,1117.05 585.623,1095.15 586.603,1090.78ZM577.489,1035.95C581.721,1037.56 584.017,1040.15 583.847,1045.19C583.329,1060.62 583.901,1077.78 583.366,1082.56C583.047,1085.41 575.427,1083.76 575.387,1076.88C575.166,1038.98 574.806,1038.7 577.489,1035.95ZM577.615,1086.55C585.499,1088.45 581.791,1090.17 582.345,1114.4C582.539,1122.91 579.653,1118.51 579.606,1126.25C579.535,1138.03 580.322,1140.03 576.784,1140.42C572.883,1140.84 572.743,1136.21 573.208,1132.31C576.329,1106.18 569.512,1084.6 577.615,1086.55ZM566.754,1026.87C567.756,1027.09 573.057,1030.3 573.035,1035.24C572.83,1080.59 574.597,1081.03 569.141,1078.94C566.364,1077.88 565.102,1076.19 565.142,1073.02C565.713,1027.84 564.235,1028.57 566.754,1026.87ZM563.601,1086.74C563.747,1077.86 569.636,1082.47 570.622,1084.74C571.61,1087.01 571.21,1136.11 571.204,1137.13C571.175,1141.68 570.879,1141.98 566.79,1142.86C562.173,1143.86 562.643,1144.84 563.601,1086.74ZM555.396,1046.77C556.366,1019.54 554.737,1019.34 556.752,1019.16C558.79,1018.98 562.626,1022.6 562.575,1026.71C561.916,1079.64 562.778,1070.07 561.89,1073.87C553.001,1077.68 555.053,1056.39 555.396,1046.77ZM554.903,1076.3C561.32,1078.75 559.568,1076.36 559.503,1136.94C559.494,1145.48 554.076,1145.89 553.659,1142.65C553.491,1141.36 553.846,1081.91 554.903,1076.3ZM545.231,1029.98C545.467,1010.28 545.48,1009.54 548.18,1010.82C554.988,1014.02 551.99,1017.08 552.651,1063.38C552.688,1065.99 552.603,1068.9 550.205,1068.36C543.774,1066.92 544.79,1066.71 545.231,1029.98ZM543.952,1109.64C544.04,1109.64 544.128,1109.63 544.215,1109.63C544.215,1072.21 543.813,1073.22 545.628,1072.75C555.085,1070.32 541.872,1211.34 543.952,1109.64ZM536.76,999.924C541.357,1002.1 542.482,1005.35 542.425,1009.73C541.718,1063.82 543.797,1064.52 539.417,1062.83C536.294,1061.63 534.545,1059.8 534.605,1056.04C535.442,1002.8 533.811,1003.05 536.76,999.924ZM539.959,1147.76C538.385,1145.21 541.406,1069.89 541.431,1068.89C543.426,1072.4 541.292,1146.13 539.959,1147.76ZM534.861,1066.38C540.048,1066.01 538.586,1065.48 537.19,1143.73C537.123,1147.48 537.268,1149.48 534.68,1149.48C531.664,1149.47 534.761,1067.38 534.861,1066.38ZM532.846,1067.05C528.506,1241.7 528.421,1099.43 530.838,1063.22C533.212,1064.4 532.877,1065.82 532.846,1067.05ZM525.805,990.4C526.192,987.102 532.196,993.952 532.125,999.195C531.666,1032.92 532.309,1052.72 531.584,1057.07C528.762,1056.68 528.094,1054.38 526.313,1053.56C524.369,1052.66 525.529,992.75 525.805,990.4ZM524.047,1105.97C524.134,1105.97 524.222,1105.97 524.309,1105.97C524.309,1061.87 524.27,1063.88 524.457,1061.26C524.531,1060.22 528.125,1058.26 527.992,1067.13C526.755,1149.66 527.538,1153.17 524.457,1151.86C522.563,1151.06 523.004,1154.56 524.047,1105.97ZM516.234,980.826C516.699,977.747 522.483,983.428 522.392,990.316C521.854,1030.81 522.706,1042.26 521.61,1050.61C516.531,1049.41 515.188,1046.43 515.245,1041.85C515.931,986.033 514.486,992.403 516.234,980.826ZM519.252,1102.25C519.241,1099.47 519.147,1096.68 519.271,1093.91C519.395,1091.13 519.433,1088.34 519.505,1085.56L519.505,1058.5C519.505,1057.89 519.835,1057.5 520.262,1057.32C520.278,1056.88 520.284,1056.9 520.279,1057.31C521.078,1056.98 522.208,1057.37 522.208,1058.5L522.208,1152.17C522.208,1153.91 519.505,1153.91 519.505,1152.17L519.505,1107.36C519.505,1105.67 519.521,1104.02 519.319,1102.34C519.297,1102.48 519.275,1102.61 519.253,1102.75C519.253,1102.59 519.252,1102.42 519.252,1102.25ZM515.616,1053.1C519.033,1054.05 516.149,1151.61 516.059,1152.61C515.878,1154.62 512.862,1155.24 512.806,1152.71C512.784,1151.71 514.302,1054.36 515.616,1053.1ZM506.898,969.072C509.149,968.306 512.885,974.286 512.792,980.689C511.937,1039.6 513.59,1040.76 512,1043.93C506.898,1042.2 505.461,1039.05 505.524,1034.24C506.384,969.197 504.703,969.818 506.898,969.072ZM509.144,1154.63C506.302,1154.57 509.717,1050.4 509.824,1049.38C511.587,1049.74 512.493,1050.41 512.622,1051.6C512.744,1052.74 512.474,1154.69 509.144,1154.63ZM506.11,1047.14C508.675,1048.73 508.218,1050.62 508.161,1052.25C504.638,1152.77 506.518,1152.44 504.376,1155.53C502.803,1153.18 505.046,1051.07 506.11,1047.14ZM499.621,958.845C504.355,963.3 503.365,964.768 503.326,978.648C503.149,1041.92 503.226,1032.06 502.985,1037.17C497.95,1035.25 496.367,1032.21 496.438,1027.75C497.441,964.079 495.345,954.82 499.621,958.845ZM501.216,1156.05C500.826,1157.61 498.277,1158.14 497.412,1156.74C496.913,1156.59 496.504,1156.18 496.504,1155.5L496.504,1044C496.504,1043.17 497.119,1042.74 497.763,1042.7C498.105,1042.41 498.6,1042.31 499.042,1042.42C499.249,1042.25 499.519,1042.15 499.856,1042.15C500.249,1042.15 500.548,1042.29 500.763,1042.5C500.767,1042.5 500.77,1042.5 500.774,1042.5C505.355,1040.33 501.47,1155.04 501.216,1156.05ZM487.559,986.301C487.559,974.728 487.555,963.154 487.567,951.581C487.576,942.384 494.408,950.988 494.303,957.742C493.149,1031.95 495.6,1028.73 492.582,1029.63C485.657,1031.69 487.701,1011.81 487.701,986.302C487.654,986.301 487.607,986.301 487.559,986.301ZM489.914,1034.61C493.706,1035.59 494.76,1037.82 494.625,1041.04C489.548,1162.32 494.742,1160.27 488.666,1160.63C486.524,1160.77 486.203,1168.17 489.914,1034.61ZM480.158,935.2C483.364,938.288 485.103,941.161 485.073,945.305C484.511,1022.42 485.594,1021.12 484.021,1022.34C482.965,1023.16 478.136,1019.33 478.212,1012.8C479.088,937.556 477.353,939.348 480.158,935.2ZM479.512,1025.12C483.564,1027.12 484.917,1029.4 484.829,1032.86C484.804,1033.86 482.675,1155.85 482.282,1159.75C481.898,1163.56 477.157,1163.56 476.939,1161.46C476.499,1157.26 479.512,1047.58 479.512,1025.12ZM469.096,965.469C469.096,932.663 468.135,918.588 471.238,922.73C477.686,931.334 476.014,924.156 475.832,1004.12C475.814,1012.07 476.25,1012.8 474.362,1013.89C467.196,1009.21 469.111,1009.39 469.111,965.469L469.096,965.469ZM476.264,1025.42C472.448,1177.13 476.02,1163.27 467.538,1164.85C466.642,1156.46 469.499,1023.54 470.668,1017.28C474.851,1018.47 476.378,1020.89 476.264,1025.42ZM460.706,909.955C469.637,907.094 467.296,947.031 467.296,1006.24C464.24,1004.76 463.257,1002.97 461.851,1001.62C458.879,998.774 459.706,910.275 460.706,909.955ZM460.782,1006.36C465.613,1009.64 467.206,1012.98 467.055,1017.96C462.523,1167.59 464.896,1164.77 462.671,1166.38C457.26,1170.29 455.107,1178.24 460.782,1006.36ZM448.457,1170.61C447.685,1165.77 450.857,1009.45 451.937,999.101C457.512,1001.42 458.352,1002.46 458.242,1008.05C454.757,1186.22 457.145,1170.58 448.457,1170.61ZM452.201,898.255C458.498,902.021 460.294,899.516 457.804,996.677C449.324,991.444 452.201,996.418 452.201,898.255ZM444.77,885.744C451.066,893.025 449.311,884.525 449.311,988.203C443.031,984.8 443.656,981.441 443.658,977.939C443.729,880.574 443.285,887.313 444.77,885.744ZM449.299,998.767C437.621,1393.6 438.981,993.835 443.249,988.432C447.191,990.774 449.452,993.618 449.299,998.767ZM436.607,872.049C439.056,876.71 441.792,880.819 441.747,886.425C441.317,939.131 441.806,967.284 441.238,978.778C436.52,975.66 434.67,972.49 434.728,967.468C435.855,870.648 433.984,874.604 436.607,872.049ZM436.878,1164.6C436.708,1173.96 437.698,1174.98 429.492,1175.51C431.337,1110.31 432.7,1045.15 434.642,979.254C442.326,984.433 440.413,969.855 436.878,1164.6ZM427.013,859.039C430.753,863.05 433.142,867.029 433.05,872.814C432.245,923.6 433.578,959.674 432.214,969.171C428.558,966.007 426.491,963.268 426.519,958.821C426.93,894.43 426.55,864.553 427.013,859.039ZM432.398,979.254C418.108,1414.63 423.647,998.728 425.843,969.068C430.253,971.754 432.563,974.232 432.398,979.254ZM420.427,846.715C425.454,853.325 424.32,840.344 424.32,959.228C420.319,955.544 418.578,952.676 418.618,948.56C419.654,841.04 418.576,848.393 420.427,846.715ZM422.825,969.204C409.896,1447.42 414.382,972.296 418.84,959.14C422.273,962.271 422.925,965.486 422.825,969.204ZM411.319,832.014C418.929,840.81 416.194,833.045 416.194,949.706C411.581,946.134 410.438,942.785 410.48,938.533C410.62,924.285 410.385,851.997 411.319,832.014ZM409.258,1153.68C408.715,1179.41 409.454,1180.45 404.797,1180.73C404.203,1174.48 409.062,955.89 409.93,948.987C415.06,949.692 413.808,938.163 409.258,1153.68ZM403.352,819C407.387,822.975 408.41,824.674 408.404,827.968C408.182,949.05 408.332,935.685 407.467,939.265C401.898,930.481 397.636,940.995 403.352,819ZM400.672,937.45C405.327,938.705 404.277,938.879 404.277,971.426C398.952,971.953 400.258,970.279 400.672,937.45ZM399.669,838.306L399.669,837.026C400.211,837.257 399.938,837.791 399.669,838.306ZM399.351,848.073C399.56,848.071 399.769,848.07 399.978,848.068L399.978,880.662C399.161,875.479 399.351,872.877 399.351,848.073ZM1669.6,1298.27C1663.23,1297.79 1663.09,1294.3 1661.27,1296.57C1657.57,1301.2 1647.28,1299.48 1641.25,1298.74C1634.67,1297.92 1637.61,1291.71 1633.54,1290.96C1629.66,1290.24 1627.12,1291.22 1626.07,1292.43C1619.48,1300.08 1618.95,1292.9 1616.53,1293.97C1608.75,1297.4 1610.83,1291.87 1606.96,1294.01C1603.65,1295.83 1601.8,1299.89 1597.35,1298.3C1591.81,1296.33 1590.94,1301.28 1589.32,1302.96C1583.83,1308.65 1582.96,1300.66 1580.43,1301.5C1577.02,1302.62 1573.17,1302.08 1570.06,1304.26C1566.82,1306.53 1565.13,1308.95 1561.69,1306.42C1550.49,1298.17 1546.15,1315.55 1544.41,1315.27C1543.4,1315.1 1541.7,1314.28 1541.7,1313.74C1541.68,1309.15 1536.31,1306.98 1533.79,1312.97C1532.14,1316.91 1528.97,1308.8 1518.25,1308.73C1509.44,1308.67 1508.52,1308.98 1507.24,1307.94C1499.56,1301.7 1497.45,1314.67 1491.22,1312.12C1488.98,1311.2 1483.85,1311.97 1482.98,1310.75C1480.1,1306.7 1476.12,1307.54 1469.78,1306.69C1468.21,1307.97 1470.3,1308.97 1469.96,1310.06C1469.59,1311.28 1469.02,1312.32 1469.35,1313.8C1470.38,1318.42 1457.92,1317.93 1457.12,1316.93C1455.23,1314.57 1453.06,1313.91 1450.21,1315.16C1447.94,1316.15 1445.1,1315.32 1443.39,1318.27C1440.05,1324.05 1436.38,1317.29 1431.69,1321.3C1426.34,1325.87 1425.08,1318.67 1422.27,1321.41C1414.94,1328.55 1400.87,1323.54 1397.34,1324.97C1391.37,1327.38 1373.71,1326.42 1370.67,1322.15C1367.5,1317.71 1365.13,1326.49 1359.63,1324.11C1350.85,1326.39 1341.71,1322.92 1332.97,1325.76C1328.73,1324.53 1324.94,1326.94 1320.9,1327.21C1285.72,1329.57 1303.4,1323.87 1291.65,1322.14C1276.65,1319.94 1275.72,1331.81 1265.72,1328.28C1258.83,1325.84 1251.01,1328.78 1245.73,1325.64C1238.94,1321.6 1232.89,1325.64 1229.26,1325.83C1221.77,1326.21 1226.13,1320.55 1217.88,1320.98C1216.67,1321.04 1210.36,1321.36 1209.71,1319.8C1208.16,1316.05 1207.15,1317.2 1182.66,1316.97C1176,1316.9 1174.36,1320.68 1168.66,1319.73C1162.24,1318.65 1129.97,1318.29 1129.97,1318.28C1125.55,1314.72 1104.83,1313.54 1103.35,1316C1101.29,1319.42 1100.35,1318.71 1076.74,1318.52C1065.53,1318.43 1070.97,1307.69 1044.55,1324.93C1042.15,1326.49 1040.89,1323.92 1039.11,1324.16C1037.41,1324.39 1036.61,1327.32 1034.84,1326.64C1032.61,1325.79 1030.1,1326.33 1028.02,1324.74C1016.72,1316.16 1009.67,1323.96 1002.91,1321.09C1002.15,1320.76 1001.03,1320.55 1000.36,1320.88C993.095,1324.45 982.646,1319.95 978.9,1324.58C976.994,1326.93 970.472,1327.74 969.299,1324.34C965.937,1314.58 957.884,1326.37 951.819,1325.09C951.289,1324.98 950.311,1325.34 950.066,1325.78C946.402,1332.36 939.093,1326.05 935.244,1328.93C929.039,1333.57 926.947,1326.63 911.531,1329.7C910.494,1329.91 901.81,1331.46 900.591,1330.52C891.856,1323.79 886.176,1335.57 878.399,1329.95C867.635,1322.19 863.912,1333.61 857.972,1332.25C854.211,1331.39 853.844,1334.54 849.2,1333.25C839.626,1330.58 842.603,1337.34 836.776,1336.2C821.075,1333.14 797.524,1341.46 792.499,1336.27C785.952,1329.51 779.802,1336.85 766.499,1336.08C759.764,1335.69 762.671,1326.04 757.856,1328.43C753.018,1330.83 755.201,1339.86 747.389,1337.79C735.416,1334.6 728.282,1340.28 722.838,1339.38C708.186,1336.95 701.568,1342.2 697.53,1335.36C696.565,1333.72 694.161,1333.34 692.857,1334.6C689.115,1338.23 684.887,1336.22 681.16,1335.53C665.68,1332.67 657.473,1336.39 648.273,1333.65C643.852,1332.34 642.292,1335.04 639.939,1334.09C634.017,1331.69 626.077,1336.54 621.215,1334.78C619.248,1334.07 600.969,1331.16 595.595,1334.51C589.161,1338.52 583.753,1330.56 576.831,1336.44C575.829,1337.3 543.884,1340.31 529.757,1334.66C527.384,1333.72 520.479,1336.74 514.166,1334.3C512.785,1333.76 506.276,1332.22 505.275,1333.27C500.759,1338.02 488.675,1330.73 472.768,1331.38C467.903,1331.58 464.799,1324.73 453.533,1328.94C443.745,1332.6 427.649,1330.86 425.259,1328.35C423.236,1326.22 420.514,1326.22 417.892,1326.44C410.073,1327.09 402.948,1324.24 395.653,1322.22C392.007,1321.21 396.912,1276.38 396.29,1241.38C395.557,1200.18 1420.31,1065.86 1687.1,1054.22C1686.73,1073.44 1688.3,1079.34 1684.75,1080.35C1682.07,1081.11 1689.59,1081.65 1684.96,1083.48C1684.36,1083.72 1683.68,1083.81 1683.47,1084.57C1684.21,1086.66 1689.4,1088.32 1689.35,1094.99C1687.54,1308.1 1698.67,1300.48 1669.6,1298.27ZM1678.51,355.226C1683.9,346.106 1681.56,652.374 1681.54,653.38C1681.51,654.38 1680.93,1010.12 1679.61,960.697C1679,937.904 1672.91,364.685 1678.51,355.226ZM1689.49,448.217C1685.3,452.679 1691.4,522.619 1685.59,527.56C1684.83,527.623 1684.54,453.881 1684.54,453.114C1684.9,335.68 1677.75,353.599 1691.19,340.492C1691.66,340.596 1692.12,340.7 1692.58,340.805C1689.56,407.386 1694.6,442.771 1689.49,448.217ZM1695.72,169.26C1695.25,294.657 1696.15,335.606 1678.33,340.989C1676.45,339.978 1676.68,338.218 1676.68,336.485C1676.39,97.851 1673.94,128.856 1692.18,98.932C1698.24,88.999 1695.9,119.809 1695.72,169.26ZM1810.81,148.162C1809.67,150.625 1796.06,173.966 1794.48,168.851C1794.36,168.435 1794.03,167.997 1794.09,167.616C1795.96,155.843 1786.41,139.493 1810.81,148.162ZM1797.8,462.313C1794.35,462.12 1793.57,460.939 1793.5,459.328C1793.5,459.327 1793.85,336.365 1793.85,336.365C1794.3,330.199 1796.43,335.541 1815.71,334.262C1826.49,333.546 1824.06,332.017 1824.06,428.827L1823.94,428.827C1823.93,471.273 1829.87,464.109 1797.8,462.313ZM1820.48,698.538C1799.78,696.679 1794.26,700.931 1793.92,694.347C1793.41,684.288 1793.79,542.398 1793.82,541.396C1794.02,534.666 1794.16,537.174 1809.84,537.456C1827.96,537.783 1824.11,545.61 1823.66,677.717C1823.6,694.924 1825.3,698.971 1820.48,698.538ZM1755.34,187.415C1755.4,187.415 1755.47,187.415 1755.53,187.414C1755.53,175.181 1755.53,162.949 1755.54,150.716C1755.55,137.823 1756.44,146.28 1787.36,145.978C1792.69,145.926 1790.79,146.34 1790.98,172.794C1791.05,183.344 1760.16,221.24 1759.13,227.631C1758.76,229.956 1755.49,230.457 1755.44,226.759C1755.31,215.89 1755.34,207.364 1755.34,187.415ZM1798.83,945.855C1801.74,946.142 1801.71,948.454 1801.2,954.207C1800.97,956.719 1800.16,957.578 1797.71,958.221C1794.46,959.075 1794.69,957.091 1794.69,952.877L1794.74,952.877C1794.74,949.925 1793.98,945.377 1798.83,945.855ZM1794.64,1053.89C1791.01,1057.87 1785.41,1047.1 1784.89,1045.91C1809.51,1039.42 1799.64,1048.41 1794.64,1053.89ZM1784.09,926.862C1788.97,926.463 1788.29,926.999 1788.01,953.505C1787.97,957.223 1788.29,959.742 1780.95,958.81C1779.89,956.201 1780.35,953.553 1780.33,950.962C1780.17,928.732 1779.46,927.24 1784.09,926.862ZM1780.68,206.898C1791.5,191.345 1787,218.052 1787.01,224.557C1787.08,268.629 1788.71,266.977 1783.12,266.859C1752.68,266.216 1738.38,267.696 1780.68,206.898ZM1754.89,536.681C1757.08,535.269 1759,534.838 1761,534.94C1789.5,536.4 1786.75,534.85 1786.79,542.428C1787.61,712.534 1788.23,697.905 1781.88,697.295C1774.97,696.631 1757.74,694.208 1755.92,693.888C1754.27,691.133 1755.83,587.394 1754.89,536.681ZM1755.17,424.672C1754.44,321.036 1749.66,329.7 1773.72,332.079C1784.69,333.165 1787.27,331.01 1787.17,336.768C1784.78,467.745 1790.66,461.211 1782.76,461.632C1772.61,462.174 1760.22,458.962 1758.05,458.869C1753.81,458.687 1755.4,457.658 1755.17,424.672ZM1783.23,779.736C1787.59,779.914 1787.78,778.778 1787.22,804.03C1787.22,804.031 1787.92,917.153 1787.92,917.153C1788.65,924.982 1777.72,917.85 1776.81,930.648C1776.35,937.151 1777.58,939.212 1774.37,939.954C1769.55,941.064 1765.63,941.095 1767.29,946.381C1768.53,950.37 1770.23,961.988 1763.78,962.208C1753.75,962.552 1755.62,962.986 1755.62,939.926L1755.64,939.926C1755.64,934.88 1755.75,929.83 1755.61,924.788C1750.83,757.32 1750.9,778.413 1783.23,779.736ZM1773.38,960.194C1773.38,962.045 1770.23,963.134 1770.21,960.55C1770.09,947.102 1769.79,946.542 1771.9,945.591C1773.51,946.794 1773.4,947.279 1773.38,960.194ZM1743.25,144.615C1744.25,144.437 1752.85,141.567 1752.32,145.406C1752.32,145.413 1752.67,192.631 1751.49,205.661C1748.94,233.731 1758.39,233.034 1739.61,254.997C1736.96,258.098 1733.12,251.141 1733.21,244.845C1734.42,153.742 1731.01,146.801 1743.25,144.615ZM1744.9,833.795C1744.85,822.663 1747.13,830.099 1747.46,819.877C1747.5,818.592 1748.47,797.947 1749.36,795.81C1751.48,796.828 1751.03,798.759 1751.04,800.404C1752.08,968.598 1752.47,962.24 1744.33,961.523C1740.93,961.224 1741.83,961.728 1741.14,893.252C1740.51,831.256 1745.19,891.503 1744.9,833.795ZM1745.28,259.14C1746.67,257.291 1747.19,254.752 1749.89,253.366C1755.44,268.499 1742.43,262.92 1745.28,259.14ZM1736.54,402.118C1736.83,389.646 1734.83,335.618 1746.2,333.159C1752.12,331.879 1750.51,327.868 1751.11,406.786C1751.52,460.784 1753.79,459.677 1740.44,451.947C1733.63,448.002 1736.28,413.685 1736.54,402.118ZM1743.61,565.906C1743.43,557.313 1743.38,555.782 1744.57,553.626C1746.82,549.591 1744.31,542.525 1749.64,540.824C1751.41,545.498 1751.58,550.197 1750.8,554.996C1748.91,566.639 1751.02,687.175 1751.04,688.176C1751.07,691.322 1750.17,691.983 1747.02,691.603C1740.05,690.762 1740.44,701.019 1739.59,578.589C1739.52,568.992 1743.77,573.719 1743.61,565.906ZM1741.29,1103.89C1743.93,1089.4 1738.52,1088.24 1746.74,1080.58C1744.27,1079.99 1742.63,1078.49 1743.55,1076.04C1744.96,1072.27 1742.8,1070.7 1742.77,1067.25C1742.69,1057.52 1749.74,1066.6 1749.9,1057.43C1750.03,1050.48 1742.53,1056.06 1743.83,1050.41C1744.27,1048.51 1744.23,1048.75 1757.33,1047.97C1760.28,1047.8 1760.05,1048.67 1772.5,1063.69C1774.3,1065.85 1774.92,1078.25 1772.49,1080.73C1768.57,1084.73 1745.28,1112.99 1742.85,1115.77C1741.45,1111.38 1740.6,1107.64 1741.29,1103.89ZM1761.5,1205.47C1760.15,1206.85 1753.5,1210.7 1756.95,1216.06C1759.28,1219.67 1736.09,1298.16 1742.28,1176.23C1746.82,1179.33 1748.74,1183.37 1751.59,1186.61C1765.08,1201.96 1764.69,1202.19 1761.5,1205.47ZM1773,1174.3C1772.61,1175.91 1770.56,1176.12 1769.22,1174.85C1757.01,1163.21 1759.06,1161.03 1760.14,1156.28C1760.47,1154.82 1762.22,1155.14 1770.79,1155.14C1770.79,1155.23 1770.79,1155.32 1770.79,1155.4C1789.17,1155.4 1776.09,1161.6 1773,1174.3ZM1799.21,1111.37C1796.93,1122.93 1791.4,1128.03 1786.14,1134.77C1783.54,1138.11 1781.64,1137.4 1771.29,1137.4C1771.29,1137.39 1771.29,1137.38 1771.29,1137.37C1758.73,1137.37 1758.33,1138.09 1758,1133.7C1757.61,1128.41 1756.76,1130.66 1787.26,1093.67C1793.51,1086.09 1794.49,1092.8 1800.05,1098.16C1803.72,1101.71 1800.95,1102.52 1799.21,1111.37ZM1820.32,953.843C1817.86,950.504 1821.32,938.906 1820.69,937.194C1818.49,931.225 1814.99,937.019 1815.86,939.006C1818.08,944.056 1816.75,949.333 1816.92,954.508C1816.99,956.375 1815.06,956.965 1808.86,956.922C1803.95,956.887 1805.92,955.202 1804.98,949.677C1803.29,939.756 1797.66,941.516 1795.16,940.088C1794.32,937.774 1794.71,935.339 1794.71,932.954C1794.52,778.014 1784.08,767.914 1819.69,782.661C1823.43,784.214 1826.35,785.957 1824.55,790.722C1824.6,791.722 1828.7,965.213 1820.32,953.843ZM1824.64,266.744C1825.63,270.524 1790.97,269.758 1793.74,264.557C1794.58,262.985 1791.46,189.838 1798.23,180.097C1818.16,151.37 1815.59,149.351 1822.17,155.536C1829.18,162.124 1823.17,261.174 1824.64,266.744ZM1827.61,147.692C1853.68,154.212 1851.35,177.254 1838.77,159.664C1834.26,153.349 1830.25,153.927 1826.2,151.011C1824.47,149.768 1825.55,147.175 1827.61,147.692ZM1827.82,217.424L1827.84,217.424C1827.83,261.187 1827.82,305.482 1827.82,217.424ZM1833.26,560.899C1837.31,561.795 1837.5,563.264 1836.9,573.606C1836.46,581.159 1841.21,577.924 1841.1,585.461C1839.99,662.376 1842.64,660.481 1839.85,662.589C1835.29,666.034 1836.36,686.337 1837.51,687.147C1840.58,689.312 1838.91,692.371 1839.29,695.013C1839.66,697.615 1834.13,699.507 1834.34,696.046C1834.34,696.045 1833.26,571.024 1833.26,560.899ZM1841.13,890.192C1837.55,903.601 1844.28,951.791 1838.07,952.52C1834.09,952.987 1833.83,832.461 1835.13,833.091C1839.65,835.295 1835.51,863.681 1838.34,867.082C1841.71,871.127 1838.53,880.968 1841.14,888.238C1841.35,888.818 1841.3,889.578 1841.13,890.192ZM1842.18,427.768C1844.17,434.371 1840.92,443.774 1841.69,448.126C1842.05,450.19 1845.94,451.709 1843.23,454.072C1839.24,457.555 1842.38,463.171 1836.11,462.674C1830.87,462.258 1834.58,461.66 1833.5,343.513C1833.43,336.404 1842.82,349.156 1841.34,356.672C1843.04,361.31 1843.86,366.571 1844.28,396.339C1844.67,423.569 1844.77,423.046 1842.96,424.706C1842.07,425.525 1841.91,426.851 1842.18,427.768ZM1848.56,183.106C1847.57,275.18 1850.28,268.772 1842.75,268.895C1831.74,269.074 1834.27,275.006 1834.27,219.164L1834.33,219.164C1834.33,177.961 1833,165.075 1838.22,169.149C1848.05,176.81 1848.62,177.142 1848.56,183.106ZM2037.45,219.51C2037.59,203.482 2039.94,213.791 2068.46,233.079C2086.83,245.508 2075.61,253.578 2078.86,317.48C2076.78,322.282 2079.99,327.406 2077.97,332.211C2078.82,335.168 2078.76,338.055 2077.27,340.909C2075.25,340.868 2073.48,340.135 2072.11,338.638C2068.11,334.261 2059.82,331.472 2057.38,326.916C2056.49,325.255 2054.83,324.558 2053.11,324.099C2047.42,322.578 2043.74,317.841 2038.78,315.142C2036.74,314.026 2037.44,220.517 2037.45,219.51ZM2039.76,917.952C2039.87,915.561 2040.61,914.908 2043.02,915.138C2052.08,916.001 2051.44,917.027 2051.84,925.816C2052.01,929.557 2049.92,929.324 2045.06,929.324L2045.06,929.296C2039.55,929.296 2039.23,930.06 2039.76,917.952ZM2040.94,911.305C2039.28,910.318 2039.73,908.891 2039.65,907.662C2038.82,893.321 2037.27,893.886 2049.83,893.911C2051.58,893.914 2052.77,894.602 2052.76,896.598C2052.73,900.931 2053.07,905.282 2052.47,910.059C2048.16,909.142 2044.36,909.628 2040.94,911.305ZM2038.29,325.479C2046.63,328.906 2050.86,335.624 2050.2,343.98C2045.41,404.235 2062.41,970.387 2039.21,883.803C2038.67,881.784 2039.12,805.237 2039.5,803.758C2036.97,785.264 2039.35,670.317 2037.92,663.553C2038.14,662.553 2035.76,328.298 2038.29,325.479ZM2034.32,924.502C2034.36,935.944 2025.41,930.504 2011.84,932.852C2006.66,933.747 2011.25,908.074 2008.75,899.796C2009.57,891.908 2005.55,317.08 2008.91,303.347C2039.71,325.658 2033.7,312.143 2032.86,368.926C2032.45,396.692 2033.12,658.182 2033.87,660.828C2031.44,667.666 2034.9,674.675 2033.27,681.536C2034.7,688.827 2034.3,920.428 2034.32,924.502ZM1995.88,177.954C2001.39,182.339 2007.25,185.216 2012.02,189.827C2042.56,219.278 2030.91,187.535 2033.72,267.723C2035.21,310.575 2033.74,312.832 2028.53,307.99C2021.06,301.034 2013.92,298.636 2010.35,293.171C2006.97,288.004 1993.27,287.736 1993.54,276.25C1993.62,272.777 1993.34,211.783 1994.49,202.49C1993.47,198.391 1993.11,182.986 1995.88,177.954ZM1993.91,295.455C1993.72,292.156 2003.33,293.497 2003.04,312.967C2002.66,337.673 2003.01,464.615 2003.01,465.671C2002.91,465.671 2002.8,465.672 2002.7,465.672C2002.7,526.089 2005.14,931.612 2005.14,931.612C2005.14,935.21 1999.53,935.952 1997.35,934.53C1991.98,931.013 1995.4,320.636 1993.91,295.455ZM1955.97,144.627C1987.89,178.094 1995.22,146.74 1990.27,253.666C1989.42,271.99 1991.31,279.665 1986.39,276.217C1963.25,260.024 1966.61,258.915 1958.51,254.8C1946.77,248.837 1954.64,250.047 1951.37,215.514C1951.37,215.514 1952.27,162.106 1951.36,151.075C1951.02,146.905 1953.06,141.574 1955.97,144.627ZM1989.9,305.921C1989.9,305.929 1991.37,933.457 1991.37,933.457C1982.19,940.008 1975.27,933.37 1970.95,937.074C1958.28,947.932 1962.05,276.773 1963.67,269.83C1995.34,293.455 1989.66,284.886 1989.9,305.921ZM1957.91,304.902L1957.91,304.902C1957.91,256.642 1957.91,246.435 1957.91,304.902ZM1912.54,111.551C1913.53,108.434 1917.04,113.265 1942.37,134.215C1952.48,142.57 1948.14,200.716 1948.04,201.738C1947.94,202.741 1950.16,252.152 1943.2,243.617C1939.04,238.523 1929.28,234.814 1921.64,225.748C1916.77,219.964 1907.9,220.757 1911.3,209.358C1912.56,205.132 1908.44,124.42 1912.54,111.551ZM1923.27,926.328C1913.98,922.508 1919.79,356.424 1917.61,243.695C1917.31,228.204 1922.37,238.875 1945.48,255.909C1947.91,257.696 1948.58,940.156 1948.38,940.178C1927.66,942.361 1928.39,943.046 1928.18,938.359C1928,934.401 1928.08,928.308 1923.27,926.328ZM1923.88,938.046C1923.66,939.443 1923.57,940.744 1923.21,941.962C1922.89,943.035 1921.07,943.473 1920.23,942.181C1916.34,936.186 1922.15,923.217 1923.88,938.046ZM1914.64,925.179C1912.45,925.525 1912.42,924.934 1912.63,914.189C1912.65,913.188 1914.64,906.062 1914.64,925.179ZM1913.63,369.549C1913.69,224.118 1913.73,158.222 1913.73,369.549L1913.63,369.549ZM1913.43,930.608C1914.51,928.949 1915.52,936.214 1914.3,943.911C1911.45,942.174 1911.89,932.98 1913.43,930.608ZM1887.9,118.327C1887.68,97.268 1888.24,88.544 1891.51,91.362C1913.49,110.287 1907.68,93.52 1907.68,213.943C1905.01,214.245 1903.82,213.22 1902.64,212.25C1879.87,193.381 1888.88,212.967 1887.9,118.327ZM1899.18,914.836C1900.14,944.11 1900.01,943.298 1899.07,944.925C1895.56,950.991 1896.61,942.981 1895.35,774.474C1895.35,773.871 1891.14,419.209 1890.83,418.693C1889.07,415.781 1889.49,293.002 1889.5,291.991C1889.99,201.472 1877.15,201.353 1904.21,223.331C1908.92,227.163 1906.21,873.927 1907.89,898.711C1908.58,909.021 1898.81,903.535 1899.18,914.836ZM1903.58,913.593C1904.86,910.557 1907.98,910.214 1908.3,914.152C1908.33,914.432 1908.29,938.491 1908.28,939.064C1908.21,942.169 1907.84,945.456 1904.82,944.824C1901.48,944.128 1902.99,915.016 1903.58,913.593ZM2072.94,1033.95C2037.61,1034.94 2021.19,1036.24 2021.19,1036.24C1727,1044.23 2075.63,1014.55 2075.52,1031C2075.51,1032.77 2074.98,1033.89 2072.94,1033.95ZM2080.41,921.307C2080.32,925.274 2080.7,928.836 2059.17,927.268C2055.01,926.965 2055.3,369.748 2054.42,365.607C2056.65,357.837 2052.11,334.866 2057.08,338.245C2078.56,352.846 2078.2,351.871 2078.21,357.176C2078.47,441.295 2077.31,528.538 2078.96,537.205C2077.41,541.019 2078.32,707.76 2079.31,713.361C2077.36,718.957 2080.82,724.749 2078.69,730.339C2079.54,732.57 2080.76,904.213 2080.41,921.307ZM2096.85,924.062C2085.06,924.787 2085.69,927.677 2085.74,916.896C2085.75,913.069 2084.34,837.823 2083.89,837.078C2083.84,829.604 2081.31,366.6 2083.37,356.701C2107.14,371.912 2095.67,339.661 2100.03,692.131C2103.02,934.122 2101.88,923.754 2096.85,924.062ZM2086.27,348.426C2081.24,345.523 2082.24,342.294 2082.24,327.744L2082.35,327.744C2081.98,232.676 2079.61,241.536 2093.62,251.821C2129.4,278.083 2127.01,260.606 2124.22,357.332C2124.06,362.659 2127.08,374.185 2121.43,371.798C2110.6,367.222 2107.2,359.727 2101.87,357.838C2096,355.758 2091.53,351.458 2086.27,348.426ZM2123.22,921.514C2118.68,922.779 2112.31,921.373 2112.31,921.373C2105.42,924.793 2107.15,920.159 2106.76,905.376C2106.36,889.839 2101.72,535.849 2103.97,528.317C2103.72,526.871 2102.66,380.205 2104.96,372.775C2106.53,372.459 2107.5,372.958 2108.42,373.576C2124.49,384.412 2125.19,383.763 2125.13,388.662C2123.85,493.469 2126.29,802.925 2126.49,803.925C2125.27,815.453 2127.41,826.928 2126.99,838.459C2123.91,921.182 2133.03,918.784 2123.22,921.514ZM2129.34,328.818C2129.34,270.94 2125.03,274.175 2143.72,287.753C2178.28,312.866 2172.79,303.758 2172.71,344.161C2172.71,345.163 2172.54,399.499 2172.88,402.381C2173.94,411.335 2154.78,390.978 2148.73,390.454C2124.09,373.562 2129.57,386.867 2129.57,328.817C2129.49,328.817 2129.42,328.818 2129.34,328.818ZM2134.5,919.764C2129.97,920.088 2130.5,791.944 2130.5,776.198L2130.54,776.198C2130.54,775.194 2130.64,609.595 2129.27,603.701C2130.71,590.246 2126.25,386.244 2132.87,390.374C2160.56,407.644 2144.15,351.671 2152.84,913.917C2152.91,918.602 2148.94,918.73 2134.5,919.764ZM2174.25,914.244C2173.02,916.031 2170.83,914.573 2169.43,915.679C2167.7,917.045 2165.65,916.629 2163.74,916.677C2154.81,916.901 2158.77,923.082 2156.89,869.35C2156.03,844.911 2156.36,691.328 2154.91,682.905C2154.91,682.905 2153.61,445.723 2155.77,405.882C2161.62,408.46 2165.83,412.028 2170.49,414.84C2175.12,417.626 2171.16,518.645 2173.38,521.961C2171.61,530.307 2177.42,909.642 2174.25,914.244ZM2178.21,316.852C2178.64,308.528 2183.62,318.182 2214.37,336.345C2221.3,340.444 2226.53,340.925 2222.66,437.154C2218.22,435.446 2214.51,433.23 2211.39,430.27C2206.41,425.532 2178.17,413.364 2177.52,405.523C2176.8,396.812 2177.7,353.642 2178.03,352.85C2177.52,351.191 2178.03,320.233 2178.21,316.852ZM2189.71,905.887C2189.35,902.536 2188.65,900.279 2191.01,899.584C2201.54,896.492 2188.56,928.565 2189.71,905.887ZM2203.43,912.482C2199.12,913.216 2199.22,908.444 2199.4,904.659C2200.07,890.744 2189.58,895.946 2189.32,886.69C2188.8,868.285 2195.75,879.788 2201.24,873.761C2205.19,869.437 2191.61,865.494 2185.59,873.242C2184.58,874.534 2184.16,875.819 2184.46,884.832C2184.9,898.261 2179.78,893.341 2183.38,899.176C2189.19,908.605 2178.8,925.658 2180.33,900.403C2180.45,898.459 2177.41,517.199 2177.39,517.14C2179.18,510.674 2176.46,435.691 2177.95,425.681C2178.29,423.433 2171.97,413.462 2195.76,431.445C2208.61,441.16 2199.52,470.174 2202.51,494.618C2202.63,495.618 2206.58,911.947 2203.43,912.482ZM2218.2,910.52C2205.28,920.748 2205.51,454.932 2208.52,440.082C2211.53,441.226 2222.84,446.608 2222.83,450.483C2222.77,499.811 2222.12,500.162 2223.6,506.154C2221.27,511.29 2224.52,562.19 2222.97,567.016C2222.97,567.017 2226.54,910.364 2226.54,910.365C2223.07,908.989 2220.58,908.635 2218.2,910.52ZM2228.76,347.55C2231.89,346.975 2274.81,374.346 2274.51,379.683C2274.45,380.683 2277.07,467.333 2274.03,468.648C2270.82,470.036 2264.35,460.972 2260.65,460.061C2256.16,458.956 2228.49,442.679 2228.2,439.944C2227.58,434.062 2227.34,349.358 2228.76,347.55ZM2231.11,909.55C2229.91,904.562 2226.92,455.022 2228.68,452.374C2262.74,468.567 2257.73,462.065 2257.48,582.305C2256.71,954.752 2275.26,902.972 2231.11,909.55ZM2274.76,904.928C2268.56,905.247 2266.13,908.319 2265.28,902.682C2265.12,901.664 2260.82,504.057 2262.75,475.625C2262.94,472.949 2265.97,474.76 2273.72,479.645C2276.08,481.127 2275.09,477.103 2275.09,569.731L2275.64,569.73C2275.64,668.656 2276.82,826.707 2276.82,826.707C2278.74,834.809 2278.02,837.808 2277.51,891.597C2277.41,902.033 2278.68,904.727 2274.76,904.928ZM2280.21,382.238C2280.16,379.153 2280.82,379.868 2321.42,405.544C2331.05,411.639 2329.29,417.043 2329.29,459.798L2329.21,459.798C2329.21,519.274 2330.46,497.764 2316.81,494.09C2312.77,493.003 2312.22,492.359 2283.77,475.329C2275.9,470.621 2280.37,392.036 2280.21,382.238ZM2316.96,900.288C2312.81,901.823 2286,903.444 2285,903.506C2279.03,903.876 2282.53,690.582 2280.19,662.316C2280.91,658.988 2278.46,490.06 2280.3,484.478C2282.99,484.253 2284.45,485.839 2286.1,486.774C2307.88,499.152 2314.59,502.048 2314.47,512.614C2313.03,645.519 2317.92,832.735 2316.96,900.288ZM2320.79,508.184C2329.02,512.032 2329.09,512.031 2329.12,519.812C2332.97,1368.56 2312.5,540.391 2320.79,508.184ZM2375.86,438.72C2387.51,445.733 2384.83,445.225 2384.83,531.816C2369.71,526.549 2357.48,517.545 2344.08,510.764C2332.35,504.825 2332.95,512.499 2333.65,434.367C2333.89,407.286 2327.28,409.476 2375.86,438.72ZM2365.78,882.578C2359.97,882.07 2358.94,894.688 2358.31,861.919C2358.17,854.358 2358.82,856.256 2368.85,854.289C2371.93,853.685 2371.64,850.528 2370.25,850.093C2352.25,844.447 2353.59,855.631 2353.59,874.671C2340.33,871.568 2336.17,879.392 2350.18,881.085C2354.7,881.632 2354.05,886.677 2351.3,888.163C2345.43,891.335 2345.26,889.747 2341.24,890.119C2334.54,890.738 2336.89,890.317 2336.57,879.613C2336.54,878.613 2330.05,512.635 2336.44,515.71C2392.72,542.796 2368.63,513.861 2375.71,798.185C2377.7,878.037 2380.67,883.882 2365.78,882.578ZM2380.24,825.219C2380.2,824.787 2381.01,792.63 2380.93,783.875C2377.8,393.475 2387.59,590.746 2385.37,596.113C2385.37,596.114 2388.3,876.649 2388.3,876.649C2375.53,879.081 2385.14,882 2380.24,825.219ZM2403.84,873.982C2400.36,876.455 2393.69,877.508 2393.51,873.457C2390.81,812.558 2389.51,560.672 2390.28,547.687C2393.49,547.278 2395.53,549.316 2397.57,550.735C2434.2,576.23 2436.5,558.872 2436.36,598.54C2435.34,900.06 2453.08,839.035 2403.84,873.982ZM2441.13,714.667C2441.13,480.227 2441.16,597.552 2441.18,714.667L2441.13,714.667ZM2442.61,563.026C2438.87,562.926 2435.79,561.977 2432.64,560.179C2385.88,533.499 2389.87,540.455 2389.86,528.37C2389.76,448.811 2389.08,450.462 2391.3,448.994C2392.95,447.907 2388.99,446.164 2433.82,472.478C2441.6,477.049 2442.98,480.833 2442.84,484.994C2442.43,497.193 2444.63,534.671 2442.61,563.026ZM2503.03,791.807C2503.08,824.837 2505.73,800.6 2468.17,835.411C2463,840.203 2456.47,842.971 2450.78,847.012C2446.71,849.91 2448.1,581.08 2449.31,579.799C2452.87,580.38 2455.89,582.669 2459.1,584.347C2511.02,611.555 2502.74,581.583 2503.03,791.807ZM2505.11,596.247C2501.67,597.081 2499.28,596.106 2496.92,594.851C2447.16,568.373 2448.35,570.358 2448.23,565.75C2445.73,472.667 2447.16,479.674 2455.26,484.241C2511.91,516.188 2505.11,493.765 2505.11,596.247ZM2510.77,515.497C2579.66,550.62 2566.89,536.529 2568.35,600.672C2568.39,602.305 2568.97,628.632 2566.75,630.462C2495.86,594.656 2508.79,612.421 2508.88,552.987C2508.93,516.674 2508.31,517.974 2510.77,515.497ZM2567.33,766.119C2567.33,766.119 2551.01,775.15 2546.6,776.859C2539.38,779.661 2532.57,783.851 2528.04,790.728C2527.23,791.947 2525.91,793.107 2524.56,793.616C2516.77,796.568 2509.97,816.798 2511.09,778.4C2511.12,777.398 2507.92,619.659 2510.75,612.239C2585.47,646.157 2563.41,638.839 2568.81,666.359C2569.01,667.361 2571.61,764.472 2567.33,766.119Z" style="fill-rule:nonzero;"/>
        </g>
        <path d="M1505.07,992.066C1505.4,991.819 1505.73,991.976 1505.07,992.066Z" style="fill-rule:nonzero;"/>
        <path d="M1749.37,1052L1749.26,1051.61L1749.6,1051.67L1749.37,1052Z" style="fill-rule:nonzero;"/>
    </g>
</svg>
