<?xml version="1.0" encoding="UTF-8" standalone="no"?>
<!DOCTYPE svg PUBLIC "-//W3C//DTD SVG 1.1//EN" "http://www.w3.org/Graphics/SVG/1.1/DTD/svg11.dtd">
<svg fill="#535357" width="100%" height="100%" viewBox="0 0 20 20" version="1.1" xmlns="http://www.w3.org/2000/svg" xmlns:xlink="http://www.w3.org/1999/xlink" xml:space="preserve" xmlns:serif="http://www.serif.com/" style="fill-rule:evenodd;clip-rule:evenodd;stroke-linejoin:round;stroke-miterlimit:2;">
    <g>
        <rect x="0" y="0" width="20" height="20" style="fill:white;fill-opacity:0;"/>
        <g transform="matrix(1.14285,0,0,1.14285,-1.14275,-1.14275)">
            <path d="M18.477,17.494C18.461,17.574 18.437,17.653 18.406,17.728C18.374,17.803 18.334,17.875 18.288,17.943C18.241,18.01 18.188,18.072 18.129,18.129C18.072,18.188 18.01,18.241 17.943,18.288C17.875,18.334 17.803,18.374 17.728,18.406C17.653,18.437 17.574,18.461 17.494,18.477C17.414,18.493 17.332,18.501 17.25,18.5L2.25,18.5C2.168,18.501 2.086,18.493 2.006,18.477C1.926,18.461 1.847,18.437 1.772,18.406C1.697,18.374 1.625,18.334 1.557,18.288C1.49,18.241 1.428,18.188 1.371,18.129C1.312,18.072 1.259,18.01 1.212,17.943C1.166,17.875 1.126,17.803 1.094,17.728C1.063,17.653 1.039,17.574 1.023,17.494C1.007,17.414 0.999,17.332 1,17.25L1,2.25C0.999,2.168 1.007,2.086 1.023,2.006C1.039,1.926 1.063,1.847 1.094,1.772C1.126,1.697 1.166,1.625 1.212,1.557C1.259,1.49 1.312,1.428 1.371,1.371C1.428,1.312 1.49,1.259 1.557,1.212C1.625,1.166 1.697,1.126 1.772,1.094C1.847,1.063 1.926,1.039 2.006,1.023C2.086,1.007 2.168,0.999 2.25,1L17.25,1C17.332,0.999 17.414,1.007 17.494,1.023C17.574,1.039 17.653,1.063 17.728,1.094C17.803,1.126 17.875,1.166 17.943,1.212C18.01,1.259 18.072,1.312 18.129,1.371C18.188,1.428 18.241,1.49 18.288,1.557C18.334,1.625 18.374,1.697 18.406,1.772C18.437,1.847 18.461,1.926 18.477,2.006C18.493,2.086 18.501,2.168 18.5,2.25L18.5,17.25C18.501,17.332 18.493,17.414 18.477,17.494ZM3.7,16L6.312,16L6.312,7.641L3.7,7.641L3.7,16ZM6.479,4.711C6.459,4.615 6.43,4.521 6.392,4.431C6.354,4.34 6.306,4.254 6.25,4.173C6.194,4.093 6.13,4.018 6.059,3.95C5.99,3.878 5.913,3.813 5.831,3.757C5.749,3.701 5.661,3.653 5.568,3.614C5.476,3.576 5.381,3.547 5.283,3.528C5.185,3.509 5.085,3.5 4.985,3.501C4.886,3.499 4.788,3.508 4.691,3.526C4.595,3.545 4.5,3.574 4.409,3.613C4.319,3.651 4.232,3.699 4.152,3.756C4.071,3.813 3.997,3.878 3.93,3.95C3.861,4.019 3.799,4.095 3.745,4.176C3.692,4.258 3.646,4.344 3.609,4.434C3.572,4.525 3.545,4.618 3.526,4.714C3.508,4.81 3.499,4.907 3.5,5.005C3.499,5.103 3.508,5.2 3.526,5.296C3.545,5.392 3.572,5.485 3.609,5.576C3.646,5.666 3.692,5.752 3.745,5.834C3.799,5.915 3.861,5.991 3.93,6.06C3.997,6.132 4.071,6.197 4.152,6.254C4.232,6.31 4.319,6.358 4.409,6.397C4.5,6.435 4.594,6.464 4.691,6.483C4.787,6.501 4.886,6.51 4.984,6.508C5.084,6.509 5.184,6.5 5.282,6.481C5.38,6.462 5.475,6.433 5.567,6.395C5.66,6.356 5.748,6.308 5.83,6.252C5.912,6.196 5.989,6.131 6.058,6.059C6.129,5.991 6.193,5.916 6.249,5.836C6.306,5.755 6.353,5.668 6.392,5.578C6.43,5.487 6.459,5.393 6.479,5.297C6.498,5.2 6.508,5.102 6.507,5.004C6.508,4.906 6.498,4.808 6.479,4.711ZM15.912,9.968C15.866,9.728 15.804,9.491 15.727,9.258C15.651,9.026 15.559,8.799 15.453,8.578C15.309,8.382 15.141,8.206 14.952,8.054C14.763,7.902 14.555,7.775 14.333,7.677C14.112,7.578 13.878,7.509 13.638,7.471C13.399,7.433 13.155,7.426 12.914,7.45C12.774,7.448 12.634,7.455 12.495,7.472C12.356,7.49 12.219,7.516 12.084,7.553C11.949,7.589 11.816,7.635 11.687,7.689C11.559,7.744 11.434,7.808 11.314,7.88C11.223,7.932 11.135,7.991 11.053,8.056C10.97,8.121 10.892,8.191 10.819,8.268C10.746,8.344 10.679,8.425 10.619,8.511C10.558,8.596 10.503,8.686 10.455,8.78L10.414,8.78L10.414,7.641L7.914,7.641L7.914,16L10.492,16L10.492,11.859C10.485,11.732 10.485,11.605 10.493,11.478C10.501,11.352 10.517,11.226 10.54,11.101C10.563,10.976 10.593,10.852 10.631,10.731C10.668,10.61 10.713,10.491 10.765,10.375C10.831,10.266 10.911,10.166 11.004,10.079C11.097,9.992 11.202,9.918 11.315,9.86C11.428,9.801 11.549,9.759 11.674,9.734C11.799,9.709 11.927,9.701 12.054,9.711C12.178,9.698 12.304,9.706 12.426,9.734C12.547,9.763 12.663,9.812 12.769,9.878C12.874,9.945 12.968,10.029 13.046,10.127C13.124,10.225 13.185,10.335 13.226,10.453C13.265,10.572 13.299,10.693 13.327,10.816C13.354,10.938 13.377,11.062 13.394,11.186C13.41,11.31 13.422,11.435 13.427,11.561C13.432,11.686 13.432,11.812 13.426,11.937L13.426,16L16,16L16,11.43C16.017,11.186 16.018,10.941 16.003,10.696C15.989,10.452 15.958,10.209 15.912,9.968Z" style=""/>
        </g>
    </g>
</svg>