<?xml version="1.0" encoding="utf-8"?>
<!-- Generator: Adobe Illustrator 21.0.1, SVG Export Plug-In . SVG Version: 6.00 Build 0)  -->
<svg version="1.1" id="Layer_1" xmlns="http://www.w3.org/2000/svg" xmlns:xlink="http://www.w3.org/1999/xlink" x="0px" y="0px"
	 viewBox="0 0 289 51" style="enable-background:new 0 0 289 51;" xml:space="preserve">
<style type="text/css">
	.st0{fill:#565656;}
</style>
<g>
</g>
<g>
	<path class="st0" d="M14,10.8c-0.2,0.6-0.4,1.1-0.6,1.6c-0.2,0.5-0.3,0.9-0.5,1.4c-0.1,0.5-0.3,1-0.4,1.6c-0.1,0.6-0.3,1.3-0.5,2.1
		l-0.4,1.8l0,0.4c0,0.1,0,0.1,0.1,0.1c0.5-0.3,0.9-0.6,1.4-1c0.5-0.3,1-0.7,1.5-1c0.5-0.3,1.1-0.6,1.6-0.8c0.6-0.2,1.1-0.3,1.7-0.3
		c1.5,0,2.8,0.6,3.8,1.9c1,1.3,1.6,3.1,1.6,5.6c0,1.5-0.2,3-0.7,4.5c-0.5,1.5-1.2,2.9-2.1,4.1c-0.9,1.2-2.1,2.2-3.4,3
		c-1.3,0.8-2.8,1.2-4.5,1.2c-0.8,0-1.5-0.1-2.3-0.2c-0.8-0.2-1.5-0.3-2.2-0.6L5.5,48.3H3.2c-0.3,0-0.5-0.1-0.5-0.2
		c0-0.1,0-0.3,0-0.5l4.9-22.8l-0.1-0.1l-3.9,3.6L2.6,27l5.3-4.2l1.7-7.9c0.1-0.5,0.2-0.9,0.3-1.1c0.1-0.2,0.3-0.5,0.7-0.8l2.7-2.5
		L14,10.8z M8.2,35.5c0.3,0.1,0.7,0.2,1.1,0.3c0.4,0.1,0.9,0.1,1.5,0.1c1.6,0,3-0.4,4.1-1.1c1.2-0.7,2.1-1.7,2.8-2.7
		c0.7-1.1,1.3-2.3,1.6-3.6c0.4-1.3,0.5-2.6,0.5-3.7c0-1.8-0.4-3.2-1.1-4.1c-0.8-0.9-1.7-1.4-2.7-1.4c-0.3,0-0.7,0.1-1.1,0.2
		c-0.4,0.1-0.8,0.3-1.3,0.5c-0.4,0.2-0.8,0.4-1.2,0.6c-0.4,0.2-0.7,0.5-0.8,0.7c-0.2,0.3-0.4,0.6-0.5,0.9c-0.1,0.3-0.2,0.8-0.4,1.6
		L8.2,35.5z"/>
	<path class="st0" d="M33.1,4.3l7.3-1.2c-0.2,0.5-0.3,1-0.5,1.6c-0.2,0.6-0.3,1.3-0.5,1.9c-0.2,0.7-0.3,1.3-0.5,1.9
		c-0.2,0.6-0.3,1.1-0.4,1.5l-2.3,10.2c-0.1,0.1-0.1,0.3-0.1,0.4c0,0.1,0,0.1,0.1,0.1c0.1,0,0.4-0.2,1.1-0.6c0.6-0.4,1.4-0.9,2.3-1.4
		c0.9-0.5,1.8-1,2.8-1.4c1-0.4,1.9-0.6,2.7-0.6c1,0,1.7,0.3,2.3,0.9c0.5,0.6,0.8,1.3,0.8,2.1c0,0.4-0.1,1-0.2,1.8
		c-0.2,0.8-0.4,1.7-0.6,2.8c-0.2,1-0.5,2.1-0.8,3.2c-0.3,1.1-0.5,2.2-0.8,3.1c-0.2,1-0.4,1.8-0.6,2.5c-0.2,0.7-0.2,1.2-0.2,1.4
		c0,0.1,0,0.2,0.1,0.3c0,0.1,0.1,0.1,0.3,0.1c0.1,0,0.3-0.1,0.6-0.2c0.3-0.1,0.6-0.3,0.9-0.5c0.3-0.2,0.7-0.5,1.1-0.7
		c0.4-0.3,0.8-0.5,1.1-0.8l0.6,0.8c-0.2,0.2-0.6,0.5-1,0.9c-0.5,0.4-1,0.7-1.5,1.1c-0.6,0.4-1.1,0.7-1.7,0.9
		c-0.6,0.3-1.1,0.4-1.6,0.4c-0.5,0-0.9-0.2-1.3-0.5c-0.4-0.3-0.6-0.8-0.6-1.4c0-0.3,0.1-0.9,0.2-1.6c0.2-0.8,0.4-1.6,0.6-2.5
		s0.5-1.9,0.8-3c0.3-1.1,0.5-2.1,0.8-3c0.2-1,0.4-1.9,0.6-2.7c0.2-0.8,0.2-1.4,0.2-1.8c0-0.4-0.2-0.7-0.5-1s-0.8-0.3-1.4-0.3
		c-0.6,0-1.2,0.1-1.8,0.2c-0.6,0.2-1.2,0.4-1.8,0.6c-0.6,0.2-1.1,0.5-1.6,0.7c-0.5,0.2-0.8,0.5-1.1,0.6c-0.2,0.2-0.4,0.3-0.6,0.5
		c-0.2,0.2-0.3,0.4-0.4,0.7c-0.1,0.3-0.2,0.6-0.4,1c-0.1,0.4-0.2,0.9-0.4,1.5l-2.4,11.6h-3.2c0.1-0.4,0.2-1.1,0.5-2.1
		c0.2-1,0.5-2,0.7-3.2c0.3-1.1,0.5-2.2,0.7-3.1c0.2-1,0.4-1.6,0.5-2l4.1-19.2C35.9,6.7,36,6.5,36,6.3c0-0.2,0-0.4,0-0.5
		c0-0.2-0.2-0.4-0.5-0.4l-2.6,0.3V4.3z"/>
	<path class="st0" d="M55.4,19.8c0,0,0.2-0.2,0.7-0.5s0.9-0.7,1.5-1c0.6-0.4,1.2-0.7,1.9-1c0.7-0.3,1.3-0.4,1.8-0.4
		c0.6,0,1.1,0.2,1.3,0.5c0.2,0.4,0.3,0.7,0.3,1c0,0.3-0.1,0.8-0.3,1.7c-0.2,0.9-0.4,1.9-0.7,3c-0.3,1.2-0.6,2.4-0.9,3.7
		c-0.3,1.3-0.6,2.5-0.9,3.6c-0.3,1.1-0.5,2.1-0.7,2.8c-0.2,0.8-0.3,1.2-0.3,1.4c0,0.2,0,0.3,0.1,0.4c0,0.1,0.2,0.2,0.3,0.2
		c0.1,0,0.1,0,0.2,0c0.1,0,0.2-0.1,0.3-0.2c0.1-0.1,0.3-0.2,0.5-0.3c0.2-0.1,0.5-0.3,0.9-0.6c0.5-0.3,0.8-0.5,0.9-0.6
		c0.1-0.1,0.3-0.2,0.4-0.2l0.5,0.9c-1.4,1.1-2.6,1.8-3.5,2.3c-0.9,0.5-1.7,0.7-2.4,0.7c-0.5,0-0.9-0.1-1.2-0.4
		c-0.3-0.3-0.4-0.7-0.4-1.2c0-0.1,0.1-0.6,0.3-1.4c0.2-0.8,0.4-1.7,0.7-2.8c0.3-1.1,0.6-2.3,0.9-3.6c0.3-1.3,0.6-2.5,0.9-3.7
		c0.3-1.2,0.5-2.2,0.7-3c0.2-0.9,0.3-1.5,0.3-1.8c0-0.3-0.1-0.5-0.4-0.5c-0.1,0-0.2,0-0.3,0.1c-0.1,0-0.3,0.1-0.5,0.3
		c-0.2,0.1-0.6,0.3-0.9,0.6c-0.4,0.2-0.9,0.6-1.5,0.9L55.4,19.8z M64.4,7.4c0,0.4-0.1,0.8-0.4,1.1c-0.3,0.3-0.6,0.6-0.9,0.9
		c-0.4,0.3-0.8,0.5-1.2,0.6c-0.4,0.1-0.8,0.2-1.2,0.2c-0.3,0-0.4-0.1-0.4-0.4c0-0.4,0-0.8,0.1-1.3c0.1-0.5,0.2-0.9,0.4-1.4
		c0.2-0.4,0.5-0.8,0.8-1c0.3-0.3,0.7-0.4,1.2-0.4c0.4,0,0.8,0.2,1.1,0.5C64.2,6.7,64.4,7.1,64.4,7.4z"/>
	<path class="st0" d="M78.5,33.8c-0.3,0.2-0.7,0.5-1.2,0.9c-0.5,0.4-1,0.7-1.6,1.1c-0.6,0.3-1.2,0.6-1.8,0.9
		c-0.6,0.3-1.2,0.4-1.7,0.4c-0.6,0-1.1-0.2-1.4-0.7c-0.3-0.4-0.5-1-0.5-1.6c0-0.7,0.1-1.6,0.4-2.7c0.3-1.1,0.5-2.2,0.7-3.3l5-21.9
		c0-0.1,0-0.2,0.1-0.5c0-0.2,0.1-0.4,0.1-0.6c0-0.1,0-0.2-0.1-0.3c0-0.1-0.2-0.2-0.5-0.2c-0.2,0-0.6,0-1,0.1c-0.4,0-1,0.1-1.6,0.2
		V4.4l7.2-1.3c-0.1,0.3-0.2,0.7-0.3,1.4c-0.2,0.7-0.4,1.4-0.6,2.3c-0.2,0.8-0.5,1.7-0.7,2.7c-0.2,1-0.5,1.9-0.7,2.7
		s-0.4,1.7-0.6,2.4c-0.2,0.7-0.3,1.2-0.4,1.6l-1.8,7.9c-0.1,0.5-0.3,1.3-0.5,2.3s-0.5,2.1-0.7,3.2c-0.2,1.1-0.4,2.1-0.6,3.1
		c-0.2,1-0.2,1.6-0.2,1.9c0,0.2,0,0.3,0.1,0.5c0,0.2,0.2,0.2,0.3,0.2c0.1,0,0.4-0.1,0.7-0.3c0.4-0.2,0.8-0.4,1.2-0.7
		c0.4-0.3,0.8-0.5,1.2-0.8c0.4-0.3,0.7-0.4,0.8-0.6L78.5,33.8z"/>
	<path class="st0" d="M84.6,19.8c0,0,0.2-0.2,0.7-0.5s0.9-0.7,1.5-1c0.6-0.4,1.2-0.7,1.9-1c0.7-0.3,1.3-0.4,1.8-0.4
		c0.6,0,1.1,0.2,1.3,0.5c0.2,0.4,0.3,0.7,0.3,1c0,0.3-0.1,0.8-0.3,1.7c-0.2,0.9-0.4,1.9-0.7,3c-0.3,1.2-0.6,2.4-0.9,3.7
		c-0.3,1.3-0.6,2.5-0.9,3.6c-0.3,1.1-0.5,2.1-0.7,2.8c-0.2,0.8-0.3,1.2-0.3,1.4c0,0.2,0,0.3,0.1,0.4c0,0.1,0.2,0.2,0.3,0.2
		c0.1,0,0.1,0,0.2,0c0.1,0,0.2-0.1,0.3-0.2c0.1-0.1,0.3-0.2,0.5-0.3c0.2-0.1,0.5-0.3,0.9-0.6c0.5-0.3,0.8-0.5,0.9-0.6
		c0.1-0.1,0.3-0.2,0.4-0.2l0.5,0.9c-1.4,1.1-2.6,1.8-3.5,2.3c-0.9,0.5-1.7,0.7-2.4,0.7c-0.5,0-0.9-0.1-1.2-0.4
		c-0.3-0.3-0.4-0.7-0.4-1.2c0-0.1,0.1-0.6,0.3-1.4c0.2-0.8,0.4-1.7,0.7-2.8c0.3-1.1,0.6-2.3,0.9-3.6c0.3-1.3,0.6-2.5,0.9-3.7
		c0.3-1.2,0.5-2.2,0.7-3c0.2-0.9,0.3-1.5,0.3-1.8c0-0.3-0.1-0.5-0.4-0.5c-0.1,0-0.2,0-0.3,0.1c-0.1,0-0.3,0.1-0.5,0.3
		c-0.2,0.1-0.6,0.3-0.9,0.6c-0.4,0.2-0.9,0.6-1.5,0.9L84.6,19.8z M93.6,7.4c0,0.4-0.1,0.8-0.4,1.1c-0.3,0.3-0.6,0.6-0.9,0.9
		c-0.4,0.3-0.8,0.5-1.2,0.6c-0.4,0.1-0.8,0.2-1.2,0.2c-0.3,0-0.4-0.1-0.4-0.4c0-0.4,0-0.8,0.1-1.3c0.1-0.5,0.2-0.9,0.4-1.4
		c0.2-0.4,0.5-0.8,0.8-1c0.3-0.3,0.7-0.4,1.2-0.4c0.4,0,0.8,0.2,1.1,0.5C93.4,6.7,93.6,7.1,93.6,7.4z"/>
	<path class="st0" d="M109.4,10.8c-0.2,0.6-0.4,1.1-0.6,1.6c-0.2,0.5-0.3,0.9-0.5,1.4c-0.1,0.5-0.3,1-0.4,1.6
		c-0.1,0.6-0.3,1.3-0.5,2.1l-0.4,1.8l0,0.4c0,0.1,0,0.1,0.1,0.1c0.5-0.3,0.9-0.6,1.4-1c0.5-0.3,1-0.7,1.5-1c0.5-0.3,1.1-0.6,1.6-0.8
		c0.6-0.2,1.1-0.3,1.7-0.3c1.5,0,2.8,0.6,3.8,1.9c1,1.3,1.6,3.1,1.6,5.6c0,1.5-0.2,3-0.7,4.5c-0.5,1.5-1.2,2.9-2.1,4.1
		c-0.9,1.2-2.1,2.2-3.4,3c-1.3,0.8-2.8,1.2-4.5,1.2c-0.8,0-1.5-0.1-2.3-0.2c-0.8-0.2-1.5-0.3-2.2-0.6L101,48.3h-2.4
		c-0.3,0-0.5-0.1-0.5-0.2c0-0.1,0-0.3,0-0.5l4.9-22.8l-0.1-0.1L99,28.2L98.1,27l5.3-4.2l1.7-7.9c0.1-0.5,0.2-0.9,0.3-1.1
		c0.1-0.2,0.3-0.5,0.7-0.8l2.7-2.5L109.4,10.8z M103.7,35.5c0.3,0.1,0.7,0.2,1.1,0.3c0.4,0.1,0.9,0.1,1.5,0.1c1.6,0,3-0.4,4.1-1.1
		c1.2-0.7,2.1-1.7,2.8-2.7c0.7-1.1,1.3-2.3,1.6-3.6c0.4-1.3,0.5-2.6,0.5-3.7c0-1.8-0.4-3.2-1.1-4.1c-0.8-0.9-1.7-1.4-2.7-1.4
		c-0.3,0-0.7,0.1-1.1,0.2c-0.4,0.1-0.8,0.3-1.3,0.5c-0.4,0.2-0.8,0.4-1.2,0.6c-0.4,0.2-0.7,0.5-0.8,0.7c-0.2,0.3-0.4,0.6-0.5,0.9
		c-0.1,0.3-0.2,0.8-0.4,1.6L103.7,35.5z"/>
	<path class="st0" d="M156.7,34.1c-1.3,1-2.5,1.8-3.5,2.4s-1.9,0.9-2.7,0.9c-0.4,0-0.6-0.1-0.8-0.2c-0.2-0.2-0.3-0.3-0.4-0.5
		c-0.1-0.2-0.1-0.4-0.2-0.6c0-0.2,0-0.3,0-0.4c0-0.1,0-0.2,0-0.4c0-0.2,0-0.4,0-0.4c0-0.1-0.1-0.1-0.1,0c0,0-0.1,0.1-0.3,0.2
		c-1,0.7-1.9,1.2-2.7,1.6c-0.8,0.4-1.7,0.7-2.8,0.7c-0.8,0-1.6-0.2-2.4-0.6c-0.7-0.4-1.4-0.9-1.9-1.6c-0.5-0.7-1-1.5-1.3-2.5
		c-0.3-1-0.5-2-0.5-3.2c0-1.6,0.3-3.2,0.9-4.7c0.6-1.5,1.4-2.8,2.4-4c1-1.2,2.2-2.1,3.6-2.8c1.4-0.7,2.8-1.1,4.4-1.1
		c1,0,1.8,0.1,2.4,0.4c0.6,0.2,1.1,0.4,1.5,0.6l2.2-10.5c0-0.1,0.1-0.4,0.1-0.7c0-0.3,0.1-0.5,0.1-0.7c0-0.2,0-0.3-0.1-0.4
		c-0.1,0-0.2-0.1-0.4-0.1c-0.1,0-0.2,0-0.4,0c-0.2,0-0.5,0-0.8,0.1c-0.3,0-0.5,0.1-0.8,0.1c-0.2,0-0.4,0-0.5,0l-0.2-1.3l7.2-1.2
		l-6.3,30.3c-0.2,0.7-0.3,1.2-0.3,1.4c0,0.1,0,0.2,0,0.3c0,0.1,0.1,0.2,0.4,0.2c0.2,0,0.6-0.2,1.2-0.5c0.6-0.4,1.4-0.9,2.4-1.6
		L156.7,34.1z M151.7,21.2c0.1-0.6,0.2-1,0.2-1.1c0-0.1,0-0.3,0-0.5c0-0.4-0.1-0.7-0.3-0.9s-0.4-0.4-0.7-0.5
		c-0.3-0.1-0.5-0.2-0.8-0.2c-0.3,0-0.6-0.1-0.9-0.1c-1.3,0-2.5,0.4-3.5,1.1c-1.1,0.7-2,1.7-2.8,2.8c-0.8,1.1-1.4,2.4-1.8,3.7
		s-0.7,2.6-0.7,3.8c0,1.6,0.4,2.9,1.2,4c0.8,1.1,1.9,1.6,3.4,1.6c0.7,0,1.4-0.1,2-0.4c0.6-0.3,1.3-0.7,2.1-1.2L151.7,21.2z"/>
	<path class="st0" d="M166.4,4.3l7.3-1.2c-0.2,0.5-0.3,1-0.5,1.6c-0.2,0.6-0.3,1.3-0.5,1.9c-0.2,0.7-0.3,1.3-0.5,1.9
		c-0.2,0.6-0.3,1.1-0.4,1.5l-2.3,10.2c-0.1,0.1-0.1,0.3-0.1,0.4c0,0.1,0,0.1,0.1,0.1c0.1,0,0.4-0.2,1.1-0.6c0.6-0.4,1.4-0.9,2.3-1.4
		c0.9-0.5,1.8-1,2.8-1.4c1-0.4,1.9-0.6,2.7-0.6c1,0,1.7,0.3,2.3,0.9c0.5,0.6,0.8,1.3,0.8,2.1c0,0.4-0.1,1-0.2,1.8
		c-0.2,0.8-0.4,1.7-0.6,2.8c-0.2,1-0.5,2.1-0.8,3.2c-0.3,1.1-0.5,2.2-0.8,3.1c-0.2,1-0.4,1.8-0.6,2.5c-0.2,0.7-0.2,1.2-0.2,1.4
		c0,0.1,0,0.2,0.1,0.3c0,0.1,0.1,0.1,0.3,0.1c0.1,0,0.3-0.1,0.6-0.2c0.3-0.1,0.6-0.3,0.9-0.5c0.3-0.2,0.7-0.5,1.1-0.7
		c0.4-0.3,0.8-0.5,1.1-0.8l0.6,0.8c-0.2,0.2-0.6,0.5-1,0.9c-0.5,0.4-1,0.7-1.5,1.1c-0.6,0.4-1.1,0.7-1.7,0.9
		c-0.6,0.3-1.1,0.4-1.6,0.4c-0.5,0-0.9-0.2-1.3-0.5c-0.4-0.3-0.6-0.8-0.6-1.4c0-0.3,0.1-0.9,0.2-1.6c0.2-0.8,0.4-1.6,0.6-2.5
		s0.5-1.9,0.8-3c0.3-1.1,0.5-2.1,0.8-3c0.2-1,0.4-1.9,0.6-2.7c0.2-0.8,0.2-1.4,0.2-1.8c0-0.4-0.2-0.7-0.5-1s-0.8-0.3-1.4-0.3
		c-0.6,0-1.2,0.1-1.8,0.2c-0.6,0.2-1.2,0.4-1.8,0.6c-0.6,0.2-1.1,0.5-1.6,0.7c-0.5,0.2-0.8,0.5-1.1,0.6c-0.2,0.2-0.4,0.3-0.6,0.5
		c-0.2,0.2-0.3,0.4-0.4,0.7c-0.1,0.3-0.2,0.6-0.4,1c-0.1,0.4-0.2,0.9-0.4,1.5L166,36.6h-3.2c0.1-0.4,0.2-1.1,0.5-2.1
		c0.2-1,0.5-2,0.7-3.2c0.3-1.1,0.5-2.2,0.7-3.1c0.2-1,0.4-1.6,0.5-2l4.1-19.2c0.1-0.2,0.1-0.5,0.1-0.7c0-0.2,0-0.4,0-0.5
		c0-0.2-0.2-0.4-0.5-0.4l-2.6,0.3V4.3z"/>
	<path class="st0" d="M188.7,19.8c0,0,0.2-0.2,0.7-0.5s0.9-0.7,1.5-1c0.6-0.4,1.2-0.7,1.9-1c0.7-0.3,1.3-0.4,1.8-0.4
		c0.6,0,1.1,0.2,1.3,0.5c0.2,0.4,0.3,0.7,0.3,1c0,0.3-0.1,0.8-0.3,1.7c-0.2,0.9-0.4,1.9-0.7,3c-0.3,1.2-0.6,2.4-0.9,3.7
		c-0.3,1.3-0.6,2.5-0.9,3.6c-0.3,1.1-0.5,2.1-0.7,2.8c-0.2,0.8-0.3,1.2-0.3,1.4c0,0.2,0,0.3,0.1,0.4c0,0.1,0.2,0.2,0.3,0.2
		c0.1,0,0.1,0,0.2,0c0.1,0,0.2-0.1,0.3-0.2c0.1-0.1,0.3-0.2,0.5-0.3c0.2-0.1,0.5-0.3,0.9-0.6c0.5-0.3,0.8-0.5,0.9-0.6
		c0.1-0.1,0.3-0.2,0.4-0.2l0.5,0.9c-1.4,1.1-2.6,1.8-3.5,2.3c-0.9,0.5-1.7,0.7-2.4,0.7c-0.5,0-0.9-0.1-1.2-0.4
		c-0.3-0.3-0.4-0.7-0.4-1.2c0-0.1,0.1-0.6,0.3-1.4c0.2-0.8,0.4-1.7,0.7-2.8c0.3-1.1,0.6-2.3,0.9-3.6c0.3-1.3,0.6-2.5,0.9-3.7
		c0.3-1.2,0.5-2.2,0.7-3c0.2-0.9,0.3-1.5,0.3-1.8c0-0.3-0.1-0.5-0.4-0.5c-0.1,0-0.2,0-0.3,0.1c-0.1,0-0.3,0.1-0.5,0.3
		c-0.2,0.1-0.6,0.3-0.9,0.6c-0.4,0.2-0.9,0.6-1.5,0.9L188.7,19.8z M197.7,7.4c0,0.4-0.1,0.8-0.4,1.1c-0.3,0.3-0.6,0.6-0.9,0.9
		c-0.4,0.3-0.8,0.5-1.2,0.6c-0.4,0.1-0.8,0.2-1.2,0.2c-0.3,0-0.4-0.1-0.4-0.4c0-0.4,0-0.8,0.1-1.3c0.1-0.5,0.2-0.9,0.4-1.4
		c0.2-0.4,0.5-0.8,0.8-1c0.3-0.3,0.7-0.4,1.2-0.4c0.4,0,0.8,0.2,1.1,0.5C197.6,6.7,197.7,7.1,197.7,7.4z"/>
	<path class="st0" d="M202.7,19.7c0.8-0.6,1.4-1,2-1.4c0.6-0.4,1-0.6,1.4-0.9s0.8-0.4,1.1-0.5c0.3-0.1,0.6-0.1,0.9-0.1
		c0.8,0,1.3,0.3,1.6,0.8c0.3,0.5,0.4,1.2,0.4,1.9c0,0.5,0,0.9-0.1,1.2c-0.1,0.3,0,0.4,0.1,0.4c0.1,0,0.4-0.2,1.1-0.7
		c0.7-0.5,1.5-0.9,2.4-1.5c0.9-0.5,1.9-1,2.9-1.5s2-0.7,2.8-0.7c1,0,1.7,0.3,2.3,0.9c0.5,0.6,0.8,1.3,0.8,2.1c0,0.4-0.1,1-0.2,1.8
		c-0.2,0.8-0.4,1.7-0.6,2.8c-0.2,1-0.5,2.1-0.8,3.2c-0.3,1.1-0.5,2.2-0.8,3.1c-0.2,1-0.4,1.8-0.6,2.5c-0.2,0.7-0.2,1.2-0.2,1.4
		c0,0.1,0,0.2,0.1,0.3c0,0.1,0.1,0.1,0.3,0.1c0.1,0,0.3-0.1,0.6-0.2c0.3-0.1,0.6-0.3,0.9-0.5c0.3-0.2,0.7-0.5,1.1-0.7
		c0.4-0.3,0.8-0.5,1.1-0.8l0.6,0.8c-0.2,0.2-0.6,0.5-1,0.9c-0.5,0.4-1,0.7-1.5,1.1c-0.6,0.4-1.1,0.7-1.7,0.9
		c-0.6,0.3-1.1,0.4-1.6,0.4c-0.5,0-0.9-0.2-1.3-0.5c-0.4-0.3-0.6-0.8-0.6-1.4c0-0.3,0.1-0.9,0.2-1.6c0.2-0.8,0.4-1.6,0.6-2.5
		s0.5-1.9,0.8-3c0.3-1.1,0.5-2.1,0.8-3c0.2-1,0.4-1.9,0.6-2.7c0.2-0.8,0.2-1.4,0.2-1.8c0-0.4-0.2-0.7-0.5-1s-0.8-0.3-1.4-0.3
		c-0.6,0-1.2,0.1-1.8,0.2c-0.6,0.2-1.2,0.4-1.8,0.6c-0.6,0.2-1.1,0.5-1.6,0.7c-0.5,0.2-0.8,0.5-1.1,0.6c-0.2,0.2-0.4,0.3-0.6,0.5
		c-0.2,0.2-0.3,0.4-0.4,0.7c-0.1,0.3-0.2,0.6-0.4,1c-0.1,0.4-0.2,0.9-0.4,1.5l-2.4,11.6h-3.1l3.1-14.4c0.1-0.5,0.2-1,0.3-1.5
		c0.1-0.5,0.1-0.8,0.1-0.9c0-0.3-0.1-0.6-0.2-0.7c-0.1-0.1-0.3-0.2-0.5-0.2c-0.4,0-0.9,0.2-1.4,0.5c-0.5,0.3-1.2,0.7-1.8,1.1
		L202.7,19.7z"/>
	<path class="st0" d="M246.7,15.5c0,0.2,0,0.5,0,0.9c0,0.3,0,0.7,0,1c0,0.4,0,0.7,0,1c0,0.3-0.1,0.5-0.1,0.7
		c-0.1,0.3-0.3,0.5-0.5,0.6c-0.2,0.1-0.3,0.2-0.5,0.2c-0.1,1.6-0.2,2.9-0.5,4.1c-0.2,1.2-0.6,2.1-1.1,3c-0.5,0.8-1.3,1.5-2.2,2
		c-0.9,0.5-2.2,0.9-3.7,1.2c-1.1,0.2-2.1,0.4-2.9,0.6c-0.9,0.2-1.6,0.4-2.2,0.7c-0.6,0.2-1.1,0.5-1.4,0.9c-0.3,0.3-0.5,0.8-0.5,1.3
		c0,0.8,0.4,1.2,1.2,1.5c0.8,0.2,1.7,0.4,2.9,0.4c1.2,0,2.4,0,3.8,0c1.4,0,2.6,0.1,3.8,0.3c1.2,0.2,2.1,0.7,2.9,1.3
		c0.8,0.6,1.2,1.6,1.2,3c0,1.2-0.4,2.3-1.1,3.4s-1.7,2-2.9,2.8c-1.2,0.8-2.6,1.4-4.1,1.9c-1.5,0.5-3.1,0.7-4.8,0.7
		c-2,0-3.6-0.4-4.8-1.3c-1.2-0.9-1.8-2.1-1.8-3.8c0-0.9,0.2-1.7,0.6-2.4c0.4-0.7,0.8-1.3,1.2-1.8c0.4-0.5,0.8-0.9,1.2-1.2
		c0.4-0.3,0.6-0.5,0.6-0.5c0-0.1-0.1-0.2-0.3-0.3c-0.2-0.1-0.5-0.3-0.7-0.5c-0.3-0.2-0.5-0.5-0.7-0.8s-0.3-0.8-0.3-1.4
		c0-1.1,0.3-1.9,0.9-2.5c0.6-0.6,1.3-1.1,2-1.4c0.7-0.3,1.4-0.6,2-0.7c0.6-0.1,0.9-0.3,0.9-0.4c0-0.1-0.1-0.3-0.4-0.4
		c-0.2-0.1-0.5-0.2-0.8-0.4c-0.4-0.2-0.7-0.5-1.1-0.9c-0.4-0.4-0.7-0.9-1-1.5c-0.3-0.6-0.4-1.4-0.4-2.3c0-1,0.2-2,0.6-2.9
		c0.4-0.9,1-1.7,1.8-2.4c0.8-0.7,1.6-1.2,2.7-1.6s2.2-0.6,3.4-0.6c0.5,0,1,0,1.5,0.1c0.5,0.1,1,0.2,1.4,0.2c0.4,0.1,0.8,0.2,1.1,0.2
		c0.3,0.1,0.5,0.1,0.6,0.1c0.1,0,0.2,0,0.3,0c0.1,0,0.2-0.1,0.4-0.2c0.1-0.1,0.3-0.4,0.5-0.7c0.2-0.3,0.4-0.7,0.6-1.3L246.7,15.5z
		 M228.2,44c0,0.5,0.1,1,0.5,1.5c0.3,0.4,0.7,0.8,1.2,1.1c0.5,0.3,1.1,0.5,1.7,0.7c0.6,0.1,1.3,0.2,2,0.2c1.4,0,2.7-0.2,4-0.6
		c1.3-0.4,2.4-0.9,3.4-1.5c1-0.6,1.7-1.3,2.3-2.1c0.6-0.8,0.9-1.5,0.9-2.2c0-0.6-0.2-1-0.5-1.4c-0.3-0.3-0.8-0.6-1.5-0.8
		s-1.5-0.3-2.6-0.4c-1.1-0.1-2.3-0.1-3.9-0.1c-0.5,0-0.9,0-1.3,0c-0.3,0-0.8,0.1-1.3,0.1c-0.5,0.2-1,0.5-1.6,0.9
		c-0.6,0.3-1.1,0.7-1.6,1.2c-0.5,0.5-0.9,1-1.2,1.5C228.4,42.8,228.2,43.4,228.2,44z M233.7,24.9c0,0.8,0.1,1.4,0.4,2
		c0.3,0.6,0.6,1,1,1.4c0.4,0.3,0.8,0.6,1.3,0.8c0.5,0.2,0.9,0.2,1.3,0.2c0.8,0,1.6-0.3,2.2-0.9c0.6-0.6,1.2-1.3,1.6-2.2
		c0.4-0.9,0.8-1.9,1-3c0.2-1.1,0.3-2.2,0.3-3.3c0-0.6-0.2-1.1-0.6-1.4c-0.4-0.3-1-0.5-2-0.5c-0.9,0-1.8,0.2-2.6,0.6
		c-0.8,0.4-1.5,0.9-2.1,1.5c-0.6,0.6-1,1.4-1.4,2.2C233.9,23.1,233.7,23.9,233.7,24.9z"/>
	<path class="st0" d="M251.9,19.7c1-0.8,2-1.4,2.8-2c0.9-0.6,1.7-0.8,2.4-0.8c0.7,0,1.1,0.2,1.4,0.7c0.3,0.5,0.4,1.1,0.4,1.8
		c0,0.1,0,0.2,0,0.4c0,0.2-0.1,0.4-0.1,0.6c0,0.2,0,0.4-0.1,0.6c0,0.2,0,0.3,0,0.3c0,0.1,0,0.2,0.1,0.2c0.1,0,0.1,0,0.2-0.1
		c0-0.1,0.2-0.3,0.3-0.6c0.3-0.5,0.6-1,1-1.5c0.4-0.5,0.8-1,1.2-1.4c0.4-0.4,0.9-0.7,1.3-1c0.4-0.3,0.9-0.4,1.3-0.4
		c0.6,0,1,0.2,1.1,0.6c0.2,0.4,0.3,0.8,0.3,1.3c0,0.6-0.1,1.2-0.3,1.8c-1.5,0-2.7,0.1-3.5,0.2c-0.9,0.2-1.5,0.6-2,1.1
		c-0.5,0.5-0.9,1.2-1.1,2.1c-0.3,0.9-0.5,1.9-0.8,3.2l-2.2,9.9h-3l2.9-13.1c0.1-0.4,0.2-0.9,0.3-1.6c0.1-0.7,0.2-1.2,0.2-1.6
		c0-0.8-0.3-1.1-0.8-1.1c-0.3,0-0.8,0.2-1.4,0.5c-0.6,0.3-1.1,0.6-1.5,0.9L251.9,19.7z"/>
	<path class="st0" d="M287.4,34.1c-0.3,0.2-0.8,0.5-1.3,0.9c-0.5,0.4-1.1,0.7-1.7,1.1c-0.6,0.3-1.2,0.6-1.8,0.9
		c-0.6,0.3-1.1,0.4-1.5,0.4s-0.7-0.1-1-0.4c-0.2-0.3-0.3-0.7-0.3-1.3c0-0.1,0-0.4,0.1-0.8c0-0.4,0.1-0.7,0.1-0.8
		c-0.5,0.3-0.9,0.7-1.5,1.1c-0.5,0.4-1.1,0.7-1.7,1.1c-0.6,0.3-1.2,0.6-1.8,0.9s-1.2,0.3-1.8,0.3c-0.7,0-1.3-0.2-2-0.5
		c-0.6-0.3-1.1-0.7-1.6-1.3c-0.5-0.5-0.8-1.2-1.1-1.9c-0.3-0.7-0.4-1.6-0.4-2.5c0-1.2,0.3-2.5,0.8-4c0.5-1.5,1.4-2.9,2.6-4.3
		c1.2-1.4,2.8-2.5,4.8-3.5c2-1,4.4-1.5,7.4-1.7c0.1-0.4,0.2-0.6,0.3-0.9c0.1-0.2,0.2-0.4,0.5-0.5c0.2-0.1,0.5-0.2,0.9-0.2
		s1-0.1,1.7-0.1l-2.7,11.7c-0.2,0.6-0.3,1.2-0.5,2c-0.2,0.8-0.3,1.5-0.5,2.2c-0.2,0.7-0.3,1.3-0.4,1.8c-0.1,0.5-0.2,0.8-0.2,0.9
		c0,0.3,0.1,0.5,0.4,0.5c0.1,0,0.4-0.1,0.7-0.3c0.3-0.2,0.7-0.4,1.1-0.6c0.4-0.2,0.8-0.5,1.1-0.7c0.3-0.2,0.6-0.4,0.7-0.4
		L287.4,34.1z M282.5,22.8c0.2-0.8,0.3-1.4,0.4-1.9c0.1-0.5,0.2-0.9,0.2-1.1c0-0.4-0.1-0.7-0.4-0.8c-0.2-0.1-0.5-0.2-0.9-0.2
		c-1.2,0-2.4,0.3-3.6,0.9c-1.2,0.6-2.3,1.4-3.4,2.5s-1.8,2.3-2.5,3.8s-1,3-1,4.7c0,1.5,0.3,2.6,1,3.3c0.7,0.7,1.6,1.1,2.6,1.1
		c0.6,0,1.1-0.1,1.6-0.2c0.5-0.2,0.9-0.4,1.3-0.6s0.7-0.5,1-0.7c0.3-0.2,0.5-0.4,0.6-0.5c0.2-0.2,0.3-0.4,0.5-0.5
		c0.1-0.2,0.2-0.4,0.3-0.7c0.1-0.3,0.2-0.5,0.3-0.9c0.1-0.3,0.2-0.7,0.3-1.2L282.5,22.8z"/>
</g>
</svg>
